<svg width="478" height="474" viewBox="0 0 478 474" fill="none" xmlns="http://www.w3.org/2000/svg">
<g clip-path="url(#clip0_250:841)">
<path fill-rule="evenodd" clip-rule="evenodd" d="M367.913 0.186096C374.508 -0.110154 385.786 -0.00924337 396.244 0.186096C406.97 0.388843 417.995 0.0324165 422.421 5.551C425.684 9.62536 425.322 16.2225 425.659 23.4399C425.964 30.0759 425.659 109.311 425.659 124.111C425.659 138.34 427.454 157.78 416.754 162.694C411.439 165.131 401.558 164.993 392.742 164.993C390.278 164.993 387.82 164.974 385.402 164.947C385.402 164.947 384.061 162.647 383.426 162.639C382.766 162.631 381.435 164.896 381.435 164.896C376.344 164.824 371.603 164.739 367.377 164.739C347.588 164.739 335.327 164.483 316.107 164.483C299.234 164.483 282.219 164.56 264.303 164.739C257.171 164.809 247.592 164.993 238.938 164.993C234.836 164.993 230.704 165.035 226.959 164.793C226.959 164.793 226.257 163.029 225.821 162.991C225.328 162.949 224.177 164.546 224.177 164.546C219.786 164.034 216.162 162.948 214.116 160.648C211.117 157.281 210.609 149.74 210.609 143.018C210.609 128.642 210.412 35.6278 210.337 22.9279C210.3 16.104 209.49 8.14133 212.765 4.53079C215.467 1.55533 222.705 1.09336 229.498 0.698979C244.059 -0.147185 340.553 1.36924 367.377 0.187022C367.553 0.181468 367.734 0.194429 367.913 0.186096Z" fill="#A59AE8"/>
<path fill-rule="evenodd" clip-rule="evenodd" d="M298.847 22.8899C287.459 29.3704 275.732 35.5241 263.816 41.5018C266.779 31.0942 268.828 19.8173 271.787 9.405C284.206 10.6844 292.683 15.6957 298.847 22.8899Z" fill="white"/>
<path fill-rule="evenodd" clip-rule="evenodd" d="M303.406 65.2352C290.958 59.5787 279.694 52.8029 267.52 46.8945C269.877 44.7902 272.959 43.5765 275.778 42.0407C284.179 37.4534 293.428 32.6764 301.98 28.016C308.839 36.3628 310.711 55.9625 303.406 65.2352Z" fill="#018C96"/>
<path fill-rule="evenodd" clip-rule="evenodd" d="M266.95 9.13561C264.654 19.9099 261.527 30.7711 258.974 42.3101C258.597 44.0061 257.95 46.5788 258.121 47.1639C258.538 48.5943 266.392 52.2196 268.088 53.0963C277.128 57.7715 285.597 61.9311 294.575 66.5813C296.626 67.6431 298.767 69.0577 300.268 69.0077C300.59 69.0596 300.43 69.2781 300.268 69.2781C297.434 74.3588 291.637 79.5978 286.031 82.4927C264.83 93.4437 237.074 82.9333 227.931 67.9283C219.93 54.7998 222.687 37.0127 230.212 26.6662C234.069 21.3587 238.999 17.6176 245.021 14.5292C250.972 11.4778 257.95 9.0671 266.95 9.13561Z" fill="white"/>
<path fill-rule="evenodd" clip-rule="evenodd" d="M381.147 28.4604C383.868 27.405 385.43 23.3186 388.505 24.1277C391.687 24.9637 390.408 29.7343 391.476 32.6523C394.358 31.3433 396.662 28.5215 400 29.4399C403.596 30.4295 406.532 37.7497 406.545 41.064C404.757 39.567 404.005 38.5764 402.707 36.785C401.922 35.7074 400.734 32.7467 399.217 32.3126C395.929 31.372 393.941 36.5813 390.904 35.8527C387.966 35.1473 388.114 30.7915 387.511 27.7846C384.573 27.9382 383.093 33.7864 380.074 33.4892C377.368 33.2226 377.596 30.5434 377.495 27.8466C374.155 31.446 372.47 42.9239 367.163 42.037C363.908 41.4926 364.033 37.9524 363.761 35.0806C361.708 39.0004 359.64 51.2818 354.057 48.0305C350.761 46.1122 350.746 38.1487 351.971 31.9256C352.704 28.1928 354.131 22.1493 357.225 22.3474C360.818 22.5743 360.583 26.3209 361.046 28.8483C363.424 26.6662 362.703 19.5016 365.687 18.2833C369.668 18.4416 368.709 22.4234 368.734 25.4331C368.768 28.49 368.924 31.2664 369.023 33.0245C371.394 30.8322 374.45 19.9367 378.041 19.3488C382.547 18.6073 381.858 24.6573 381.147 28.4604ZM356.321 41.8972C357.682 39.7114 358.311 36.3378 359.623 34.0688C358.171 32.6643 358.428 30.3082 357.589 28.5613C356.745 33.242 355.853 37.9469 356.321 41.8972Z" fill="white"/>
<path d="M383.004 96.4007L380.226 96.4525L380.194 96.1211C380.125 95.4249 379.554 94.9379 378.81 94.9379C378.371 94.9379 377.958 95.1073 377.673 95.3962C377.412 95.6711 377.288 96.0359 377.33 96.4284L377.338 96.5099L373.667 96.5812C373.322 96.5849 372.989 96.7367 372.742 97.008C372.462 97.3089 372.318 97.718 372.365 98.0985C372.454 98.8031 373.082 99.2937 373.925 99.2937L377.617 99.2234L378.614 108.862C378.682 109.56 379.253 110.046 379.999 110.046C380.433 110.046 380.846 109.877 381.124 109.586C381.39 109.311 381.511 108.947 381.469 108.556L380.504 99.1669L383.261 99.1123C383.615 99.1058 383.943 98.9484 384.196 98.6734C384.47 98.3698 384.61 97.9643 384.561 97.5931C384.471 96.8922 383.847 96.4007 383.004 96.4007Z" fill="white"/>
<path d="M396.437 101.617C396.494 101.617 396.554 101.613 396.607 101.607L398.688 101.369C399.061 101.327 399.419 101.136 399.658 100.855C399.892 100.563 400.005 100.159 399.942 99.8362C399.879 99.4557 399.687 99.1345 399.394 98.9299C399.124 98.7457 398.819 98.6512 398.513 98.6512C398.496 98.6512 398.361 98.6596 398.344 98.6614L396.261 98.9021C395.894 98.9429 395.532 99.1345 395.302 99.4076C395.064 99.6927 394.946 100.098 395.009 100.44C395.076 100.824 395.274 101.144 395.559 101.339C395.823 101.518 396.127 101.617 396.437 101.617Z" fill="white"/>
<path d="M399.442 102.54L395.279 103.017C394.891 103.061 394.535 103.262 394.293 103.568C394.057 103.862 393.964 104.209 394.023 104.554C394.141 105.238 394.744 105.734 395.45 105.734C395.507 105.734 395.564 105.731 395.621 105.725L399.787 105.247C400.173 105.203 400.538 105.001 400.78 104.692C401.011 104.4 401.102 104.051 401.041 103.712C400.915 102.97 400.221 102.446 399.442 102.54Z" fill="white"/>
<path d="M379.877 127.201C379.399 127.112 378.911 127.1 378.433 127.093C377.758 127.083 377.124 127.07 376.581 126.841C376.052 126.621 375.619 126.153 375.39 125.554C375.162 124.961 375.179 124.342 375.43 123.854C375.763 123.215 376.576 122.805 377.491 122.805C378.132 122.805 378.713 123.016 379.08 123.391C379.62 123.937 380.48 124.044 381.072 123.62C381.39 123.391 381.601 123.011 381.634 122.61C381.666 122.251 381.554 121.917 381.314 121.673C379.856 120.188 377.495 119.697 375.442 120.447C373.379 121.2 372.15 123.124 372.384 125.235C372.609 127.321 374.127 129.064 376.148 129.573C376.744 129.72 377.343 129.738 377.929 129.752C378.559 129.767 379.149 129.782 379.691 129.96C380.234 130.141 380.69 130.649 380.846 131.258C381.021 131.945 380.77 132.594 380.182 132.955C379.573 133.331 378.683 133.394 378.148 133.071C377.473 132.67 376.622 132.773 376.165 133.329C375.916 133.629 375.814 134.045 375.886 134.444C375.954 134.799 376.152 135.093 376.449 135.27C377.234 135.74 378.135 135.987 379.065 135.987C380.398 135.987 381.679 135.471 382.598 134.572C384.092 133.098 384.16 130.582 382.75 128.846C382.049 127.987 381.055 127.417 379.877 127.201Z" fill="white"/>
<path d="M390.722 118.67C390.157 118.67 389.7 119.01 389.532 119.554L384.571 135.542C384.432 135.982 384.516 136.428 384.805 136.794C385.105 137.173 385.581 137.408 386.059 137.408C386.625 137.408 387.083 137.068 387.254 136.524L392.215 120.536C392.349 120.094 392.265 119.65 391.977 119.284C391.679 118.905 391.196 118.67 390.722 118.67Z" fill="white"/>
<path d="M405.859 120.902C405.632 120.563 405.239 120.315 404.841 120.252C404.051 120.139 403.423 120.599 403.21 121.352L400.413 131.303L396.834 124.176C396.581 123.684 396.099 123.392 395.527 123.392C395.009 123.392 394.503 123.645 394.237 124.04C393.992 124.405 393.976 124.837 394.187 125.256L399.468 135.77C399.714 136.275 400.197 136.58 400.75 136.58C401.422 136.58 402.019 136.127 402.198 135.483L406.032 121.854C406.125 121.537 406.066 121.2 405.859 120.902Z" fill="white"/>
<path d="M320.826 28.889L319.651 33.3929C319.521 33.8938 319.626 34.3844 319.944 34.7686C320.28 35.1797 320.843 35.4324 321.409 35.4324C322.202 35.4324 322.811 34.9751 323.003 34.2372L324.706 27.7012L328.091 26.4848C328.403 27.3059 328.715 28.128 329.023 28.9501L329.447 30.0638C329.706 30.7471 330.348 31.1748 331.118 31.1748C331.723 31.1748 332.289 30.91 332.604 30.4851C332.892 30.0953 332.949 29.6083 332.762 29.1177L331.094 24.6998C331.195 24.4027 331.208 24.1027 331.118 23.8083C331.017 23.451 330.764 23.1269 330.412 22.8992L327.623 15.5207C327.366 14.8356 326.723 14.407 325.952 14.407C325.364 14.407 324.821 14.6514 324.499 15.0662C324.263 15.3717 324.164 15.7429 324.23 16.1308C324.141 16.2688 324.076 16.4197 324.035 16.5789L321.774 25.2498L320.561 25.684C319.652 26.0117 319.161 26.8551 319.404 27.6864C319.58 28.2956 320.177 28.7862 320.826 28.889ZM325.718 23.8324L326.278 21.6827L326.93 23.3991C326.523 23.5435 326.118 23.687 325.718 23.8324Z" fill="white"/>
<path d="M345.563 34.7511C345.403 33.7503 344.437 33.1384 343.422 33.4466C334.931 36.0379 326.657 39.3707 318.81 43.3497C318.113 43.7006 317.798 44.3644 317.986 45.0809C318.19 45.8484 318.913 46.4057 319.695 46.4057C319.982 46.4057 320.258 46.3372 320.528 46.2021C328.14 42.3397 336.168 39.1106 344.393 36.5999C345.367 36.3018 345.688 35.4556 345.563 34.7511Z" fill="white"/>
<path d="M375.092 145.088C374.089 144.726 372.482 144.676 370.887 144.676L368.836 144.686C367.061 144.686 365.035 144.636 363.491 144.058C357.883 141.962 355.937 132.714 354.877 124.892C354.004 118.512 353.72 111.967 353.446 105.636C353.368 103.891 353.293 102.171 353.206 100.491C352.514 86.8753 351.463 66.2989 344.437 59.0815C342.61 57.2068 338.934 55.1905 335.164 55.1905C334.369 55.1905 333.594 55.2793 332.858 55.458C323.824 57.6391 318.654 65.0056 313.174 72.8025C312.114 74.3208 311.047 75.8372 309.951 77.3139C309.551 77.8554 309.12 78.4516 308.661 79.0867C304.198 85.2645 297.457 94.6019 288.881 94.6019L288.693 94.6C281.603 94.4862 276.625 87.7169 273.33 83.237L272.11 81.5743C268.234 76.2816 263.846 70.2816 257.618 70.2816C256.029 70.2816 254.326 70.676 252.563 71.4564C249.242 72.9266 245.551 76.6121 242.184 81.8289C233.308 95.574 230.123 115.42 228.005 134.817L227.851 136.241C226.73 146.522 225.708 155.792 224.179 164.545C225.062 164.649 225.988 164.724 226.925 164.785C228.425 157.001 229.644 148.898 230.558 140.37C232.732 120.118 234.976 99.178 244.02 84.7784C247.144 79.8033 252.303 73.8014 258.445 74.5559C262.894 75.0975 266.367 80.2227 269.163 84.3433C269.883 85.4089 270.567 86.4171 271.174 87.2067C275.138 92.355 279.354 96.0748 283.044 97.6866C287.454 99.6113 292.162 99.3521 296.638 96.9765C303.496 93.3391 308.793 85.682 313.914 78.2785C316.837 74.0523 319.86 69.6854 323.135 66.1443C326.385 62.6347 330.386 59.0463 335.467 59.0463C336.148 59.0463 336.833 59.1121 337.51 59.2463C342.6 60.2545 345.895 65.9527 347.581 76.6714C348.811 84.5016 349.124 93.6391 349.431 102.478C349.971 118.263 350.531 134.591 356.319 143.254C357.727 145.367 360.682 147.994 363.378 148.699C364.204 148.916 365.089 149.017 366.175 149.017C367.035 149.017 367.908 148.952 368.755 148.892C369.606 148.827 370.415 148.768 371.225 148.768C372.509 148.768 373.529 148.926 374.424 149.27C379.072 151.039 380.537 158.559 381.438 164.896C382.743 164.918 384.063 164.934 385.399 164.948C383.974 155.701 381.651 147.461 375.092 145.088Z" fill="white"/>
<path fill-rule="evenodd" clip-rule="evenodd" d="M376.856 49.7617C380.446 47.0038 391.441 47.3435 402.736 47.7657C415.365 48.2388 425.793 46.4066 429.676 50.8171C432.018 53.4713 432.416 61.2608 432.707 67.3784C432.943 72.5359 434.128 81.6928 431.493 85.02C428.267 89.0926 410.756 87.9002 403.96 87.9002C399.665 87.9002 394.364 88.2066 388.83 87.9002C380.068 87.416 374.886 87.166 374.009 77.0991C373.578 72.1674 371.654 53.7546 376.856 49.7617Z" fill="#F6EBF9"/>
<path d="M391.213 81.1688C398.94 72.5757 406.669 63.989 414.408 55.4043C416.039 53.587 413.376 50.8059 411.725 52.6297C403.99 61.2228 396.266 69.8122 388.522 78.3979C386.886 80.2143 389.552 83.0018 391.213 81.1688Z" fill="#016A66"/>
<path d="M392.455 61.2552C389.82 59.8675 388.868 56.7059 390.333 54.2128C391.802 51.7178 395.132 50.818 397.767 52.2039C400.405 53.5907 401.357 56.7476 399.887 59.2454C398.423 61.7394 395.089 62.6421 392.455 61.2552ZM396.244 54.8035C395.118 54.2128 393.7 54.5989 393.077 55.658C392.455 56.7208 392.862 58.0641 393.981 58.6547C395.103 59.2454 396.519 58.8602 397.147 57.8002C397.766 56.7356 397.366 55.3932 396.244 54.8035Z" fill="#016A66"/>
<path d="M405.946 82.9037C402.933 81.3151 401.847 77.7054 403.521 74.8513C405.198 71.998 409.011 70.9667 412.023 72.5516C415.037 74.1384 416.124 77.7508 414.451 80.6059C412.773 83.4592 408.96 84.4905 405.946 82.9037ZM410.494 75.1512C408.997 74.3624 407.1 74.8744 406.268 76.2946C405.434 77.7147 405.973 79.5107 407.476 80.3013C408.973 81.0929 410.872 80.5781 411.705 79.1617C412.541 77.7378 411.997 75.9381 410.494 75.1512Z" fill="#016A66"/>
<path d="M185.158 462.359C183.306 450.858 177.656 424.748 176.83 423.123C173.059 423.236 157.377 425.883 153.593 426.195C153.473 426.253 153.345 426.307 153.224 426.359C153.975 435.7 156.86 446.897 153.97 454.828C152.021 460.196 145.354 463.887 141.847 469.054C141.381 469.741 141.052 471.957 141.714 473.999L173.534 467.562C173.805 465.311 173.633 462.768 173.713 461.408C173.944 457.591 173.643 454.768 176.396 451.905C176.919 454.923 177.722 457.839 178.31 460.864C178.655 462.668 178.893 464.56 179.366 466.382L185.352 465.17C185.396 464.289 185.317 463.341 185.158 462.359Z" fill="#EB5401"/>
<path d="M210.743 468.283C211.234 457.015 210.971 431.154 210.505 429.453C206.9 428.835 191.498 428.338 187.849 427.907C187.723 427.94 187.594 427.966 187.468 427.991C186.355 437 186.909 448.179 182.62 455.153C179.721 459.872 172.674 462.097 168.334 466.326C167.763 466.888 167.017 468.926 167.247 470.991H198.695C199.397 468.911 199.727 466.462 200.071 465.187C201.036 461.609 201.298 458.872 204.467 456.684C204.375 459.648 204.573 462.569 204.535 465.554C204.514 467.33 204.37 469.172 204.459 470.991H210.382C210.591 470.162 210.705 469.246 210.743 468.283Z" fill="#EB5401"/>
<path fill-rule="evenodd" clip-rule="evenodd" d="M221.602 210.087C212.436 214.394 201.53 218.699 190.494 222.167C179.795 225.528 168.212 228.737 155.245 229.363C147.7 246.645 141.765 264.578 135.286 282.826C132.133 291.708 129.022 300.962 126.472 310.585C123.871 320.412 121.376 330.696 120.512 341.428C119.568 353.156 122.413 362.822 125.956 372.017C129.454 381.103 133.178 389.785 136.84 397.977C143.309 412.446 151.391 430.934 154.42 438.893C156.146 438.145 164.743 435.102 171.555 432.816C174.474 431.836 177.064 430.995 178.648 430.533C178.713 430.515 178.774 430.513 178.84 430.498L156.403 347.507C156.403 347.507 178.823 283.764 185.313 264.064C185.093 319.879 183.84 377.06 185.387 432.924C194.639 433.907 203.901 433.445 213.186 433.361C218.864 410.939 222.949 385.166 221.603 356.854C221.137 347.084 220.483 337.078 221.083 327.036C221.623 317.98 223.455 309.167 224.71 300.048C225.954 291.063 226.936 281.863 227.821 272.548C229.672 252.987 234.46 220.906 221.602 210.087Z" fill="#018C96"/>
<path d="M221.602 210.087C220.28 210.707 218.914 211.325 217.526 211.944C218.226 213.252 218.902 214.517 219.525 215.997C219.604 216.169 222.986 239.23 219.787 260.978C217.789 274.551 214.844 288.46 213.046 303.13C211.233 317.929 210.772 333.231 211.233 349.656C211.682 365.622 212.182 381.858 211.233 397.463C210.525 409.151 209.699 420.446 208.379 431.391C208.299 432.048 208.183 432.734 208.063 433.431C209.767 433.399 211.475 433.373 213.184 433.358C218.862 410.937 222.947 385.163 221.601 356.851C221.135 347.081 220.481 337.075 221.082 327.033C221.621 317.977 223.453 309.164 224.709 300.046C225.952 291.06 226.934 281.861 227.819 272.545C229.672 252.987 234.46 220.906 221.602 210.087Z" fill="#016A66"/>
<path d="M183.897 248.599C183.567 248.714 183.579 248.878 183.383 249.114C181.364 251.534 180.046 256.898 178.716 260.936C171.788 281.962 164.586 301.275 157.719 321.854C154.952 330.148 151.746 338.534 150.465 347.3C149.031 357.062 151.834 366.593 154.353 375.06C160.127 394.498 166.065 413.138 171.552 432.809C171.552 432.809 178.772 430.512 178.838 430.497C175.89 409.268 170.336 388.916 165.092 369.96C163.041 362.547 160.371 354.259 160.43 346.569C160.493 337.826 163.827 330.477 166.131 322.923C172.322 302.64 178.822 283.763 185.311 264.062C185.311 264.254 185.307 264.445 185.307 264.636C185.668 262.392 186.001 259.22 186.228 256.31C186.482 253.247 187.184 247.466 183.897 248.599Z" fill="#016A66"/>
<path fill-rule="evenodd" clip-rule="evenodd" d="M187.623 344.712C190.856 347.721 199.363 337.919 195.135 336.144C193.007 336.247 192.039 338.724 190.662 340.201C189.297 341.662 186.058 343.257 187.623 344.712Z" fill="#016A66"/>
<path fill-rule="evenodd" clip-rule="evenodd" d="M125.659 357.698C128.892 360.708 137.399 350.905 133.171 349.13C131.042 349.233 130.075 351.71 128.701 353.187C127.328 354.649 124.094 356.242 125.659 357.698Z" fill="#016A66"/>
<path fill-rule="evenodd" clip-rule="evenodd" d="M128.468 343.298C129.494 341.782 130.763 339.192 129.678 338.399C128.28 337.381 127.486 339.148 126.763 340.444C126.04 341.734 125.193 343.361 126.368 344.094C127.648 344.899 128.066 343.891 128.468 343.298Z" fill="white"/>
<path fill-rule="evenodd" clip-rule="evenodd" d="M129.785 334.002C130.637 332.934 130.942 331.543 129.908 330.969C128.133 329.989 125.89 333.928 127.684 334.802C128.367 335.136 129.085 334.889 129.785 334.002Z" fill="white"/>
<path fill-rule="evenodd" clip-rule="evenodd" d="M221.039 231.026C220.143 231.059 219.892 228.235 220.423 227.52C220.571 227.325 221.22 227.228 221.397 227.397C222.054 228.033 221.96 230.991 221.039 231.026Z" fill="white"/>
<path fill-rule="evenodd" clip-rule="evenodd" d="M224.04 218.594C225.383 218.505 225.731 223.747 224.397 223.922C222.944 224.111 222.691 218.681 224.04 218.594Z" fill="white"/>
<path fill-rule="evenodd" clip-rule="evenodd" d="M220.154 224.134C218.299 223.186 217.74 216.165 219.747 215.88C221.61 215.615 222.889 221.982 221.728 223.61C221.49 223.946 220.52 224.324 220.154 224.134Z" fill="white"/>
<path fill-rule="evenodd" clip-rule="evenodd" d="M151.886 63.3836C151.09 62.6078 152.23 61.5219 152.624 60.9414C155.889 56.1496 162.559 51.0096 169.86 50.2005C171.919 49.9718 177.821 50.2422 180.445 51.4207C185.048 53.488 187.864 57.9261 189.801 62.8939C191.166 66.4017 191.615 70.8269 193.495 74.1282C195.541 77.7249 198.602 79.1099 200.88 82.6732C202.275 84.8543 203.776 88.2612 204.082 90.9728C204.548 95.1213 203.34 98.318 203.586 101.471C204.211 109.417 211.287 112.996 216.144 117.584C219.885 121.122 223.702 125.18 224.269 131.256C224.849 137.473 221.269 143.092 216.144 143.464C208.887 143.99 208.103 137.994 202.848 135.895C200.134 134.809 195.419 134.965 192.261 134.673C184.785 133.986 180.141 130.995 177.245 125.154C172.966 116.527 172.547 102.158 170.846 90.9719C169.402 81.5215 167.42 65.2287 158.286 63.1402C156.081 62.6356 154.085 63.1994 151.886 63.3836Z" fill="#F6EBF9"/>
<path d="M128.225 201.838C129.32 197.83 130.78 193.739 130.839 190.005C130.864 188.354 130.445 186.554 130.55 184.858C130.839 180.201 132.453 176.471 133.45 171.995C127.264 170.533 120.136 169.899 113.707 168.65C112.898 171.983 111.547 176.858 109.933 180.744C108.446 184.33 106.746 187.87 104.997 191.292C101.393 198.353 99.0487 206.109 96.8716 213.675C92.283 229.616 87.5011 244.994 84.3838 262.043C76.4483 264.437 65.388 264.924 59.9965 268.989C58.8883 269.825 57.1051 270.798 57.0921 272.334L76.8422 277.962L98.0292 272.334C104.656 260.022 110.087 246.779 116.319 232.972C120.604 223.484 125.245 212.744 128.225 201.838Z" fill="#EAD2AF"/>
<path fill-rule="evenodd" clip-rule="evenodd" d="M125.254 187.731C125.65 190.021 112.743 190.998 113.061 188.244C113.237 186.727 115.365 187.248 116.949 187.214C119.791 187.156 124.917 185.783 125.254 187.731Z" fill="#EFB52B"/>
<path d="M130.7 166.074C132.39 155.094 129.45 139.194 133.9 129.941C134.283 129.145 134.731 128.397 135.209 127.673C128.057 127.55 124.414 132.69 121.865 137.45C116.359 147.743 112.404 163.115 109.803 174.562C115.98 175.984 122.413 177.161 129.035 178.143C129.018 178.027 128.984 177.909 128.976 177.793C128.617 173.653 130.095 169.978 130.7 166.074Z" fill="#7C75D1"/>
<path d="M130.7 166.074C132.39 155.094 129.45 139.194 133.9 129.941C134.283 129.145 134.731 128.397 135.209 127.673C127.328 127.826 127.057 141.608 127.239 154.551C127.387 164.636 124.01 172.922 129.035 178.143C129.018 178.028 128.984 177.91 128.976 177.794C128.617 173.653 130.095 169.978 130.7 166.074Z" fill="#A59AE8"/>
<path fill-rule="evenodd" clip-rule="evenodd" d="M223.155 211.59C205.417 221.832 180.397 229.177 155.246 229.362C157.15 212.812 144.58 197.94 141.962 194.478C138.406 189.772 129.491 183.803 128.977 177.793C128.618 173.653 130.096 169.978 130.701 166.074C132.391 155.094 129.451 139.194 133.901 129.941C138.645 120.07 150.788 115.919 164.186 115.29C173.057 114.875 181.981 117.057 186.588 121.394C191.244 125.776 193.78 133.843 195.451 141.902C200.474 166.083 214.33 192.308 223.155 211.59Z" fill="#7C75D1"/>
<path fill-rule="evenodd" clip-rule="evenodd" d="M188.077 170.129C189.984 171.969 186.428 176.152 184.628 177.697C182.82 179.248 179.817 180.595 176.753 181.116C173.486 181.671 167.243 182.119 167.146 180.381C167.079 179.09 170.284 178.173 171.825 177.696C177.543 175.934 182.057 172.756 186.847 170.128C187.159 169.957 187.74 170.26 188.077 170.129Z" fill="#A59AE8"/>
<path fill-rule="evenodd" clip-rule="evenodd" d="M131.596 175.045C131.517 172.854 131.882 169.413 133.499 169.29C135.576 169.127 135.249 171.43 135.16 173.207C135.071 174.975 134.899 177.166 133.229 177.181C131.408 177.194 131.627 175.904 131.596 175.045Z" fill="white"/>
<path fill-rule="evenodd" clip-rule="evenodd" d="M136.195 164.737C136.009 163.112 136.585 161.499 138.009 161.567C140.443 161.681 140.216 167.108 137.826 166.87C136.922 166.781 136.347 166.081 136.195 164.737Z" fill="white"/>
<path fill-rule="evenodd" clip-rule="evenodd" d="M144.155 91.807C144.826 92.4596 145.578 95.174 145.689 96.2563C146.264 101.523 144.507 113.493 144.054 123.627C150.769 124.032 157.441 124.601 164.112 125.031C166.816 124.418 169.535 123.895 172.304 123.965C172.708 118.057 173.084 111.446 173.33 109.357C177.891 108.617 182.1 106.07 184.395 101.463C185.657 98.9401 186.423 94.1094 185.855 90.2433C185.542 88.0844 184.538 85.2635 183.526 82.1779C181.81 76.975 180.271 71.9527 178.213 66.9942C176.996 64.053 176.002 61.4265 174.819 60.048C172.298 57.1096 167.559 54.8933 161.703 55.1303C153.221 55.4719 144.654 61.9218 143.219 70.1354C142.58 73.8014 143.296 76.1881 144.312 78.921C140.674 78.4757 136.428 79.3737 135.696 82.3908C134.773 86.2754 138.55 89.1166 141.032 90.4405C142.166 91.0478 143.443 91.1284 144.155 91.807Z" fill="#EAD2AF"/>
<path fill-rule="evenodd" clip-rule="evenodd" d="M158.711 81.9755C162.528 76.4644 167.379 79.5741 167.379 79.5741C167.379 79.5741 166.501 81.5191 163.501 82.506C161.272 83.2383 158.711 81.9755 158.711 81.9755Z" fill="white"/>
<path fill-rule="evenodd" clip-rule="evenodd" d="M167.379 79.5737C167.379 79.5737 165.028 78.0425 162.271 79.0229C162.222 79.2534 162.091 79.7228 162.113 79.9746C162.239 81.092 163.188 81.9502 164.4 82.1501C166.675 81.1235 167.379 79.5737 167.379 79.5737Z" fill="#7C75D1"/>
<path d="M157.695 79.5117C160.503 75.9511 165.346 76.0539 167.121 76.6417L167.654 75.0827C164.835 74.1486 159.465 74.5763 156.382 78.4979L157.695 79.5117Z" fill="#F6EBF9"/>
<path fill-rule="evenodd" clip-rule="evenodd" d="M173.208 78.0065C176.744 72.8879 181.246 75.768 181.246 75.768C181.246 75.768 180.439 77.5825 177.653 78.5018C175.585 79.1767 173.208 78.0065 173.208 78.0065Z" fill="white"/>
<path fill-rule="evenodd" clip-rule="evenodd" d="M181.246 75.7678C181.246 75.7678 179.067 74.3541 176.504 75.2633C176.462 75.4854 176.344 75.9169 176.365 76.1418C176.474 77.1907 177.364 77.9841 178.49 78.1748C180.597 77.212 181.246 75.7678 181.246 75.7678Z" fill="#7C75D1"/>
<path d="M172.31 75.7595C174.898 72.4822 179.357 72.5729 180.993 73.1127L181.521 71.5509C178.89 70.6751 173.882 71.0834 171.001 74.7411L172.31 75.7595Z" fill="#F6EBF9"/>
<path fill-rule="evenodd" clip-rule="evenodd" d="M156.831 104.241C156.78 110.455 164.971 118.224 172.762 117.646L173.331 109.356C166.479 109.694 160.883 106.997 156.831 104.241Z" fill="#EFB52B"/>
<path fill-rule="evenodd" clip-rule="evenodd" d="M162.779 91.4931C161.337 95.9804 167.036 100.24 173.089 99.8261C175.288 99.6733 178.915 98.2134 179.332 95.8184C180.038 91.6338 176.051 92.0523 172.568 91.6607C169.184 91.2802 163.989 87.728 162.779 91.4931Z" fill="white"/>
<path fill-rule="evenodd" clip-rule="evenodd" d="M172.369 89.9276C181.436 87.5493 173.714 81.7391 171.252 78.3507C171.115 78.1637 171.014 77.7592 170.689 77.7249C168.933 77.5323 170.803 86.7448 172.369 89.9276Z" fill="#EFB52B"/>
<path fill-rule="evenodd" clip-rule="evenodd" d="M154.377 88.3732C154.276 90.1118 155.614 91.6033 157.359 91.7033C159.117 91.8042 160.614 90.4757 160.721 88.7361C160.818 86.9938 159.486 85.5135 157.728 85.4107C155.984 85.3117 154.479 86.63 154.377 88.3732Z" fill="#EFB52B"/>
<path d="M180.068 83.7832C180.165 82.1594 181.491 80.9133 183.088 80.8346C183.236 81.2854 183.383 81.7224 183.529 82.1779C184.041 83.7369 184.549 85.2274 184.968 86.6013C184.422 86.9577 183.765 87.1586 183.053 87.116C181.307 87.0188 179.969 85.5218 180.068 83.7832Z" fill="#EFB52B"/>
<path d="M190.408 70.8954C186.689 64.2076 183.529 57.2272 178.199 51.629C172.759 50.1431 166.554 50.8745 161.538 53.7379L161.125 53.3898C161.144 56.0894 162.276 58.726 164.241 60.6137C166.195 62.4949 168.952 63.6151 171.794 63.678C173.438 63.7104 175.272 63.4549 176.539 64.3918C177.858 65.3583 178.002 67.184 178.887 68.5254C179.604 69.6299 180.868 70.3909 182.242 70.5594C183.616 70.7223 185.093 70.2927 186.169 69.4077C186.508 70.0955 186.851 70.801 187.398 71.3629C187.944 71.9212 188.723 72.3258 189.537 72.2647C190.033 72.2304 190.488 72.0221 190.876 71.7129C190.722 71.4407 190.564 71.1695 190.408 70.8954Z" fill="#F6EBF9"/>
<path fill-rule="evenodd" clip-rule="evenodd" d="M143.015 114.853C144.463 114.159 146.057 115.276 147.73 116.288C149.214 117.189 150.031 117.888 151.741 118.821C154.479 120.322 158.877 121.531 159.889 123.324C160.732 124.811 159.946 126.594 159.335 128.032C158.833 129.224 158.07 131.464 156.656 131.861C154.454 132.483 149.991 128.265 148.274 126.912C147.061 125.949 145.775 124.994 144.401 123.812C143.122 122.716 141.285 121.24 140.839 120.088C140.146 118.319 141.601 115.534 143.015 114.853Z" fill="white"/>
<path fill-rule="evenodd" clip-rule="evenodd" d="M174.807 114.254C173.258 113.662 171.854 114.882 170.358 116.002C169.028 116.999 168.33 117.752 166.785 118.796C164.304 120.477 160.128 121.977 159.41 123.833C158.82 125.367 159.893 127.088 160.731 128.476C161.429 129.627 162.55 131.803 164.019 132.102C166.314 132.568 170.064 128.07 171.548 126.605C172.604 125.565 173.717 124.526 174.897 123.257C175.989 122.08 177.573 120.488 177.831 119.31C178.232 117.504 176.331 114.833 174.807 114.254Z" fill="white"/>
<path fill-rule="evenodd" clip-rule="evenodd" d="M164.456 72.7294C166.598 67.5774 165.892 62.4468 165.607 60.1508C164.478 65.6407 161.692 68.2218 158.31 71.4389C157.008 72.6822 155.016 74.5634 154.742 75.9122C154.386 77.7036 155.51 79.7515 155.826 81.8706C156.131 83.9147 156.351 86.4948 155.959 88.6491C155.461 91.4385 153.193 94.1316 153.039 96.697C152.751 101.645 156.864 105.966 157.072 111.683C157.189 114.955 155.984 119.186 155.685 123.365C155.563 125.165 155.588 127.152 155.588 129.247C155.588 131.217 156.004 133.535 155.485 135.126C154.098 139.415 145.557 140.125 141.119 141.235C138.582 141.87 136.291 142.711 133.81 143.987C132.029 144.902 128.718 147.162 126.499 146.736C121.731 145.822 119.118 130.79 119.158 124.896C119.254 111.826 128.185 107.2 132.43 99.8789C137.425 91.2691 131.52 81.1299 133.644 68.7559C134.744 62.3921 141.185 56.2403 146.465 53.5759C149.696 51.9456 154.716 50.4255 158.225 50.8263C167.236 51.8577 169.845 60.1462 168.214 67.3423C167.736 69.4234 166.442 72.1897 164.456 72.7294Z" fill="#F6EBF9"/>
<path fill-rule="evenodd" clip-rule="evenodd" d="M138.465 68.8634C140.919 69.4049 144.98 66.2036 143.262 63.9271C141.289 61.3053 135.519 68.2172 138.465 68.8634Z" fill="white"/>
<path fill-rule="evenodd" clip-rule="evenodd" d="M139.308 71.1278C137.171 70.8603 138.79 76.0307 140.381 75.4271C142.065 74.7893 140.632 71.2935 139.308 71.1278Z" fill="white"/>
<path fill-rule="evenodd" clip-rule="evenodd" d="M200.331 90.5294C200.461 90.3822 200.604 90.4035 200.701 90.2711C201.871 88.6806 199.592 85.4487 198.031 86.1625C196.314 86.9448 199.191 91.8135 200.331 90.5294Z" fill="white"/>
<path fill-rule="evenodd" clip-rule="evenodd" d="M200.206 95.25C201.313 95.486 201.346 92.7809 200.426 92.5587C199.266 92.2838 199.296 95.0583 200.206 95.25Z" fill="white"/>
<path fill-rule="evenodd" clip-rule="evenodd" d="M130.454 116.284C130.899 117.58 129.629 119.173 128.434 118.421C127.072 117.562 129.836 114.479 130.454 116.284Z" fill="white"/>
<path fill-rule="evenodd" clip-rule="evenodd" d="M123.222 117.267C123.5 117.169 123.854 117.2 124.104 117.362C125.461 118.261 126.026 123.337 123.75 123.21C121.572 123.093 121.426 117.896 123.222 117.267Z" fill="white"/>
<path fill-rule="evenodd" clip-rule="evenodd" d="M226.959 150.846L221.587 155.184L209.231 171.158C201.947 164.201 191.743 150.342 185.601 139.935C183.359 136.128 180.958 132.256 179.965 128.153C178.686 122.891 179.89 117.322 185.962 117.322C193.963 117.325 202.614 124.975 208.381 130.173C215.649 136.721 222.106 143.655 226.959 150.846Z" fill="#7C75D1"/>
<path fill-rule="evenodd" clip-rule="evenodd" d="M221.647 155.132C221.647 155.132 215.915 159.764 211.226 163.555C211.226 163.555 211.369 167.151 210.749 167.651C210.231 168.07 207.806 166.318 207.806 166.318C199.438 156.262 191.347 144.327 183.901 132.223C182.244 133.381 180.621 134.572 179.091 135.845C176.474 138.016 174.239 140.73 171.596 142.877C175.966 154.018 181.49 164.561 187.354 175.369C193.194 186.108 200.501 198.345 209.518 202.921C214.471 205.435 221.766 204.749 226.735 199.92C238.946 188.072 220.942 153.575 221.647 155.132Z" fill="#EAD2AF"/>
<path d="M217.089 175.775C218.401 174.958 214.05 167.571 211.233 163.555C210.088 164.477 208.947 165.397 207.806 166.319C207.784 166.291 207.759 166.26 207.734 166.229C210.363 170.085 215.327 176.868 217.089 175.775Z" fill="#EFB52B"/>
<path fill-rule="evenodd" clip-rule="evenodd" d="M209.883 194.931C211.611 196.064 214.054 198.213 213.268 199.5C212.263 201.156 210.678 199.659 209.355 198.623C208.044 197.593 206.457 196.269 207.354 195.002C208.336 193.618 209.204 194.484 209.883 194.931Z" fill="white"/>
<path fill-rule="evenodd" clip-rule="evenodd" d="M218.766 197.276C220.3 197.446 221.666 198.299 221.308 199.575C220.702 201.755 215.746 200.428 216.461 198.313C216.733 197.511 217.496 197.132 218.766 197.276Z" fill="white"/>
<path fill-rule="evenodd" clip-rule="evenodd" d="M185.181 123.516C183.207 122.963 182.037 126.914 181.432 129.601C178.97 124.852 174.209 119.031 170.128 115.887C168.869 114.914 166.855 113.08 165.664 113.846C164.109 114.851 166.055 117.41 167.07 118.71C168.465 120.497 169.566 121.367 170.556 123.057C170.186 123.103 168.366 123.249 167.905 124.31C167.523 125.184 167.787 125.728 168.329 126.644C167.022 127.068 166.594 127.335 166.227 128.559C165.791 130.011 167.484 131.652 167.484 131.652C166.923 132.319 166.249 133.533 166.093 134.69C165.595 138.356 172.654 143.851 174.967 150.186C172.87 144.439 182.055 141.38 187.788 139.57C186.852 136.764 186.397 134.751 186.239 132.004C186.1 129.428 186.844 126.941 186.564 124.941C186.495 124.453 185.9 123.718 185.181 123.516Z" fill="#EAD2AF"/>
<path d="M225.964 277.49C223.502 277.243 221.035 277.021 218.56 276.842C223.02 325.657 231.21 422.203 234.468 455.006C235.043 460.801 234.869 467.145 236.932 470.266C237.95 469.953 239.01 469.714 239.847 469.092C240.673 463.978 239.8 458.495 239.401 453.441C236.789 420.745 229.676 326.306 225.964 277.49Z" fill="#F6EBF9"/>
<path d="M60.5072 277.49C62.9691 277.243 65.4347 277.021 67.9087 276.842C63.4508 325.657 55.2585 422.203 52.0003 455.006C51.4243 460.801 51.5998 467.145 49.5384 470.266C48.5189 469.953 47.4602 469.714 46.6219 469.092C45.7975 463.978 46.6704 458.495 47.0662 453.441C49.6794 420.745 56.7952 326.306 60.5072 277.49Z" fill="#F6EBF9"/>
<path fill-rule="evenodd" clip-rule="evenodd" d="M240.262 282.53C240.262 284.581 238.585 286.244 236.517 286.244H48.5693C46.5014 286.244 44.8237 284.581 44.8237 282.53V276.048C44.8237 273.997 46.5014 272.333 48.5693 272.333H119.884L174.37 266.791L224.755 272.333H236.519C238.586 272.333 240.264 273.997 240.264 276.048V282.53H240.262Z" fill="#F6EBF9"/>
<path d="M193.12 262.683L180.668 208.857C180.207 206.642 178.236 205.033 175.962 205.05L106.788 206.224C105.378 206.222 104.044 206.832 103.129 207.89C102.211 208.951 101.812 210.353 102.025 211.731L114.296 264.841C114.653 267.099 116.555 268.753 118.79 268.87C119.047 268.881 119.308 268.873 119.567 268.845L188.932 268.391C190.28 268.246 191.502 267.541 192.301 266.455L193.12 262.683Z" fill="#A59AE8"/>
<path d="M188.972 264.574L120.52 265.239L107.768 212.162L176.327 210.213L188.972 264.574Z" fill="white"/>
<path d="M229.921 266.791C229.921 269.851 227.415 272.333 224.333 272.333H119.884C116.796 272.333 114.296 269.851 114.296 266.791C114.296 263.73 116.795 261.249 119.884 261.249H224.333C227.414 261.249 229.921 263.73 229.921 266.791Z" fill="#A59AE8"/>
<path fill-rule="evenodd" clip-rule="evenodd" d="M169.285 228.9C168.252 228.444 168.391 227.43 168.25 226.549C166.23 227.828 165.259 232.62 162.523 231.828C160.83 231.338 159.85 228.315 158.995 226.77C157.875 224.77 156.834 222.983 155.933 221.592C153.496 228.74 151.422 236.358 149.298 244.189C148.682 246.478 147.952 250.997 145.959 250.856C144.42 250.746 143.519 249.1 142.912 248.098C140.922 244.818 139.453 241.468 137.25 238.469C135.716 241.868 134.844 245.412 133.384 249.504C132.923 250.793 132.457 252.47 131.382 251.942C130.501 251.512 131.293 249.857 131.591 248.886C132.335 246.453 133.157 243.198 134.229 240.129C135.094 237.677 135.644 235.034 137.637 235.332C139.762 235.649 141.222 239.117 142.025 240.4C143.22 242.309 144.111 243.852 145.422 245.836C147.212 239.568 149.753 231.171 151.829 224.301C152.599 221.752 153.655 217.174 156.572 218.121C158.174 218.638 159.604 221.787 160.324 222.967C161.494 224.864 162.247 226.43 163.256 228.1C164.149 227.099 164.952 225.9 165.743 224.694C165.496 224.618 164.385 224.795 164.251 224.036C165.062 222.762 167.293 222.059 168.607 221.84C170.373 221.547 170.568 223.616 170.576 225.221C170.582 226.439 170.664 228.658 169.285 228.9Z" fill="#F6EBF9"/>
<path fill-rule="evenodd" clip-rule="evenodd" d="M123.846 225.596C123.972 225.64 124.104 225.684 124.228 225.729C125.113 235.046 125.927 244.393 126.217 253.998C138.023 253.805 148.544 252.924 160.757 252.402C162.454 252.329 164.383 252.262 166.459 252.093C167.083 252.04 171.641 251.062 171.37 253.219C171.123 255.137 167.079 254.455 165.913 254.463C153.846 254.568 142.749 255.217 130.65 255.668C129.14 255.725 125.671 256.233 124.908 255.679C124.094 255.083 124.329 253.347 124.272 252.188C123.794 243.291 123.719 234.933 123.711 225.978C123.757 225.85 123.802 225.723 123.846 225.596Z" fill="#F6EBF9"/>
<path d="M423.18 261.765C422.25 253.422 414.447 251.637 404.787 252.201C393.623 252.849 384.248 255.307 377.653 260.43C371.046 265.559 366.931 272.457 362.847 280.222C355.685 293.839 348.553 309.951 343.113 325.147C342.72 326.229 342.847 327.578 341.77 328.261C336.094 328.276 329.272 329.328 322.481 330.037C315.968 330.721 309.485 331.058 304.536 333.152C299.98 335.085 296.721 340.289 294.891 344.94C294.116 346.92 292.392 350.79 293.323 352.501C294.457 354.569 298.954 353.214 301.842 353.39C294.103 376.631 272.04 442.536 264.272 465.482C263.768 466.973 262.801 468.786 263.596 470.377C266.876 472.201 267.175 470.013 268.311 467.038C270.22 462.037 286.38 414.652 287.935 410.549C295.281 391.237 303.024 370.867 310.144 352.949C321.702 352.248 334.611 351.712 346.248 351.835C343.779 374.98 335.761 439.818 333.165 462.986C332.878 465.536 331.407 471.649 335.183 470.993C337.092 470.665 337.402 464.948 337.872 462.101C341.223 441.882 349.874 381.05 353.201 361.619C353.781 358.251 353.856 354.819 354.999 351.612C368.604 351.391 383.307 351.066 396.037 350.722C399.724 372.173 409.87 440.674 413.591 461.957C414.167 465.251 413.987 468.855 416.051 470.629C417.075 470.452 418.127 470.315 418.97 469.964C419.794 467.057 418.921 463.941 418.525 461.068C415.514 439.687 406.552 371.842 403.666 350.497C405.506 350.694 406.727 350.272 407.479 349.386C408.082 340.607 409.024 328.896 399.629 328.706C405.644 314.58 414.315 297.325 419.588 280.889C421.37 275.33 423.905 268.316 423.18 261.765ZM348.27 327.816C352.674 316.965 357.006 305.861 361.952 295.345C366.834 284.95 371.72 274.604 379.227 266.656C373.18 286.538 365.333 306.56 359.705 327.59C355.689 327.457 352.325 327.979 348.27 327.816ZM365.988 327.59C372.005 304.869 380.542 284.643 386.625 261.985C388.411 261.093 390.528 260.521 392.676 259.982C393.667 260.392 392.587 261.354 392.45 261.765C390.848 266.567 388.733 271.418 386.848 276.441C380.702 292.775 374.271 310.261 368.903 327.59H365.988V327.59ZM375.182 327.59C382.745 303.953 391.184 281.186 399.853 258.649C402.613 258.646 404.748 258.018 407.701 258.204C396.24 279.309 388.623 304.218 379.444 327.59H375.182ZM416.225 271.326C414.298 280.247 410.391 289.109 407.252 296.457C402.409 307.81 397.692 317.999 393.573 328.035C390.709 328.208 388.477 327.752 385.722 327.816C394.852 304.545 402.625 279.932 413.758 258.649C418.506 259.311 417.276 266.441 416.225 271.326Z" fill="#F6EBF9"/>
<path d="M399.486 328.376C399.325 328.351 374.772 326.322 341.765 328.26C336.102 328.591 313.017 329.664 304.54 333.151C303.13 333.729 301.88 334.669 300.727 335.772H407.294C406.42 331.746 405.07 329.146 399.486 328.376Z" fill="#EAD2AF"/>
<path fill-rule="evenodd" clip-rule="evenodd" d="M306.121 406.853L312.027 416.124L290.983 428.821L285.521 419.873L306.121 406.853Z" fill="#EAD2AF"/>
<path fill-rule="evenodd" clip-rule="evenodd" d="M286.819 470.991C282.523 467.785 282.33 462.705 283.678 459.47C284.749 456.896 287.286 454.543 289.352 451.994C291.175 449.75 293.681 446.798 293.441 444.257C293.013 439.661 285.329 432.643 287.156 428.93C287.727 427.767 311.286 414.349 312.262 414.669C312.262 414.669 325.842 433.611 330.825 440.707C331.832 442.14 333.035 443.605 332.945 444.515C332.818 445.797 329.985 446.959 327.969 448.11C316.007 454.91 304.359 461.603 292.552 467.957C290.65 468.98 286.819 470.991 286.819 470.991Z" fill="#016A66"/>
<path d="M291.989 456.308C294.343 455.633 301.284 446.825 301.364 445.008C301.431 443.472 291.875 429.798 289.869 426.988C289.869 426.988 287.435 428.366 287.157 428.93C285.33 432.643 293.014 439.658 293.442 444.257C293.682 446.797 291.176 449.75 289.354 451.994C288.687 452.826 287.953 453.639 287.251 454.437C288.931 455.45 290.383 456.765 291.989 456.308Z" fill="#018C96"/>
<path d="M332.945 444.516C333.035 443.604 331.827 442.14 330.825 440.708C327.444 435.9 324.689 432.152 321.838 428.057C319.622 430.077 318.358 432.855 317.787 435.124C316.535 440.084 317.779 446.365 321.166 451.982C323.431 450.694 325.686 449.408 327.965 448.113C329.99 446.964 332.819 445.798 332.945 444.516Z" fill="#018C96"/>
<path d="M287.3 456.686C286.884 456.459 286.344 456.29 285.761 456.195C284.896 457.27 284.14 458.35 283.679 459.47C282.33 462.705 282.524 467.785 286.82 470.991L294.869 466.693C294.815 466.616 292.01 459.232 287.3 456.686Z" fill="#018C96"/>
<path fill-rule="evenodd" clip-rule="evenodd" d="M269.254 325.236C269.427 325.236 269.6 325.236 269.777 325.236C288.48 346.357 298.97 375.622 309.43 404.916C301.419 412.476 291.3 417.951 281.437 423.679C268.957 405.725 258.349 385.915 247.743 366.105C250.112 353.458 252.298 340.635 254.739 328.064C259.207 326.751 264.617 326.377 269.254 325.236Z" fill="#A59AE8"/>
<path d="M269.776 325.236H269.253C268.722 325.367 268.179 325.485 267.626 325.6C267.107 326.617 266.521 327.581 265.866 328.455C265.38 329.104 264.882 329.74 264.38 330.377H264.641C283.209 351.348 293.689 380.347 304.072 409.436C305.935 408.001 307.739 406.513 309.429 404.916C298.969 375.622 288.48 346.357 269.776 325.236Z" fill="#7C75D1"/>
<path fill-rule="evenodd" clip-rule="evenodd" d="M235.057 425.016L232.951 435.783L208.854 430.731L211.061 420.505L235.057 425.016Z" fill="#EAD2AF"/>
<path fill-rule="evenodd" clip-rule="evenodd" d="M186.135 447.113C186.882 447.008 187.653 446.927 188.433 446.851L199.404 447.075L209.31 428.637C216.699 430.022 233.741 434.168 234.131 434.887C234.131 434.887 230.93 457.91 229.655 466.464C229.4 468.191 229.265 470.077 228.567 470.677C227.593 471.524 224.727 470.446 222.463 469.915C209.931 466.947 197.666 464.096 185.511 460.964L183.662 454.035L186.135 447.113Z" fill="#016A66"/>
<path d="M190.591 451.433C192.775 452.54 203.916 450.843 205.231 449.577C206.337 448.5 208.835 432.05 209.309 428.64C209.309 428.64 206.586 427.989 205.994 428.211C202.097 429.673 202.845 440.004 199.975 443.645C198.394 445.655 194.537 446.107 191.654 446.502C190.591 446.651 189.498 446.749 188.433 446.851C188.956 448.732 189.108 450.677 190.591 451.433Z" fill="#018C96"/>
<path d="M228.567 470.678C229.265 470.075 229.395 468.187 229.655 466.465C230.519 460.664 231.103 456.064 231.855 451.142C228.845 451.108 226.003 452.272 224.023 453.538C219.682 456.298 216.246 461.716 214.834 468.112C217.37 468.711 219.905 469.31 222.455 469.911C224.723 470.453 227.593 471.524 228.567 470.678Z" fill="#018C96"/>
<path d="M186.918 448.523C186.772 448.074 186.495 447.585 186.136 447.117C184.762 447.314 183.468 447.589 182.355 448.089C179.134 449.53 175.771 453.358 176.679 458.615L185.514 460.953C185.531 460.861 188.587 453.576 186.918 448.523Z" fill="#018C96"/>
<path fill-rule="evenodd" clip-rule="evenodd" d="M368.197 281.026C367.327 279.363 365.923 276.32 364.633 275.885C363.134 275.384 360.076 275.726 357.749 275.629C341.258 274.928 325.645 276.726 309.815 276.207C309.663 278.779 309.259 280.372 307.798 282.568C286.209 284.268 263.751 288.227 245.604 293.878C239.431 295.802 232.766 297.498 228.022 300.818C220.342 306.189 216.634 317.771 214.257 329.349C209.656 351.786 207.994 375.398 206.103 399.776C205.547 406.967 204.984 414.152 204.689 421.319C215.231 422.984 225.792 424.496 236.358 425.971C236.911 426.052 237.469 426.134 238.027 426.216C246.591 398.828 253.966 369.688 257.842 338.087C258.181 335.3 257.343 331.344 258.233 329.373C294.154 333.704 347.409 336.917 366.926 316.754C370.5 313.061 373.369 308.327 373.805 301.589C374.301 293.999 370.976 286.315 368.197 281.026Z" fill="#A59AE8"/>
<path d="M313.746 293.621C315.306 292.017 310.806 286.241 307.811 282.53C307.807 282.543 307.803 282.557 307.798 282.569C305.927 282.715 304.056 282.885 302.177 283.066C304.522 286.465 312.32 295.091 313.746 293.621Z" fill="#7C75D1"/>
<path d="M368.197 281.026C367.51 279.718 366.498 277.564 365.467 276.489C365.493 278.784 366.458 283.289 366.667 284.623C367.649 290.779 365.497 299.188 363.866 302.36C357.267 315.21 334.332 321.544 317.481 323.695C305.035 325.282 285.2 326.428 271.098 325.749C265.663 325.489 259.449 325.442 256.311 327.549C252.411 330.175 251.76 337.062 250.706 342.971C247.964 358.345 245.053 371.315 241.785 386.154C238.941 399.063 235.252 412.237 232.659 425.451C233.894 425.627 235.127 425.803 236.36 425.972C236.913 426.053 237.471 426.135 238.029 426.217C246.593 398.829 253.967 369.689 257.844 338.088C258.183 335.301 257.973 332.606 258.861 330.635C294.782 334.967 347.411 336.918 366.928 316.755C370.502 313.062 373.371 308.328 373.807 301.59C374.301 293.999 370.976 286.315 368.197 281.026Z" fill="#7C75D1"/>
<path fill-rule="evenodd" clip-rule="evenodd" d="M222.373 323.407C221.434 322.976 222.666 319.935 223.593 319.475C223.846 319.347 224.567 319.587 224.659 319.854C225.004 320.851 223.34 323.849 222.373 323.407Z" fill="white"/>
<path fill-rule="evenodd" clip-rule="evenodd" d="M232.861 315.035C234.292 315.642 231.879 321.227 230.409 320.713C228.812 320.154 231.43 314.428 232.861 315.035Z" fill="white"/>
<path fill-rule="evenodd" clip-rule="evenodd" d="M225.104 315.846C223.698 313.906 226.835 306.377 229.056 307.13C231.116 307.828 229.065 315.052 227.01 316.123C226.582 316.345 225.387 316.232 225.104 315.846Z" fill="white"/>
<path fill-rule="evenodd" clip-rule="evenodd" d="M364.905 297.268C368.103 295.636 367.871 304.391 365.194 304.474C362.05 304.57 363.345 298.951 364.612 297.446C364.693 297.354 364.793 297.327 364.905 297.268Z" fill="white"/>
<path fill-rule="evenodd" clip-rule="evenodd" d="M359.666 304.654C362.418 303.698 362.642 311.081 359.666 310.599C357.409 310.233 357.767 305.314 359.666 304.654Z" fill="white"/>
<path fill-rule="evenodd" clip-rule="evenodd" d="M290.71 162.88C281.415 164.769 274.658 162.294 272.057 151.269C271.117 147.275 270.548 141.435 269.603 136.032C267.87 126.155 267.548 118.866 271.063 112.591C273.396 108.426 277.532 105.301 281.258 103.23C285.069 101.119 291.691 100.432 295.194 100.745C304.476 101.574 314.784 110.274 315.809 122.813C316.207 127.718 315.431 132.316 314.449 136.366C312.839 142.949 313.489 147.8 315.081 155.353C315.752 158.509 317.636 165.397 317.636 165.397C320.951 175.91 299.143 179.646 294.692 175.317C293.962 174.606 292.527 167.04 290.71 162.88Z" fill="#EAD2AF"/>
<path fill-rule="evenodd" clip-rule="evenodd" d="M281.705 127.033C275.673 122.357 271.481 127.368 271.481 127.368C271.481 127.368 273.11 129.191 276.699 129.236C279.364 129.27 281.705 127.033 281.705 127.033Z" fill="white"/>
<path fill-rule="evenodd" clip-rule="evenodd" d="M271.482 127.368C271.482 127.368 273.511 124.922 276.835 125.041C276.97 125.281 277.276 125.742 277.326 126.021C277.581 127.271 276.852 128.525 275.612 129.158C272.782 128.819 271.482 127.368 271.482 127.368Z" fill="#018C96"/>
<path d="M282.644 124.702C278.881 121.159 273.441 122.079 271.542 123.04L270.701 121.412C273.706 119.889 279.787 119.495 283.914 123.373L282.644 124.702Z" fill="#EB5401"/>
<path fill-rule="evenodd" clip-rule="evenodd" d="M268.883 126.849C270.425 126.454 271.277 137.412 270.78 141.783C268.866 142.565 266.139 142.371 265.279 140.831C263.573 137.782 267.416 127.227 268.883 126.849Z" fill="#EFB52B"/>
<path d="M290.769 133.585C291.633 136.444 289.993 139.457 287.112 140.31C284.226 141.162 281.191 139.533 280.333 136.678C279.469 133.819 281.104 130.809 283.99 129.957C286.876 129.101 289.909 130.725 290.769 133.585Z" fill="#EFB52B"/>
<path fill-rule="evenodd" clip-rule="evenodd" d="M270.573 143.225C270.573 143.225 280.302 143.141 284.821 142.576C295.316 141.27 294.017 134.909 295.351 130.414C295.785 128.96 296.495 126.59 297.132 124.04C297.945 120.802 298.371 117.416 301.59 117.391C306.13 117.356 307.221 125.774 307.235 131.52C307.258 140.241 306.445 150.54 303.078 156.181C299.133 162.777 282.018 167.344 274.332 166.829C272.879 166.732 269.986 165.812 268.985 164.059C267.596 161.633 268.825 158.238 269.282 154.637C269.715 151.196 270.099 146.3 270.573 143.225Z" fill="#EB5401"/>
<path fill-rule="evenodd" clip-rule="evenodd" d="M270.573 143.225V146.674C272.692 149.896 281.634 150.31 282.218 145.658C277.541 146.5 275.077 141.159 270.573 143.225Z" fill="white"/>
<path fill-rule="evenodd" clip-rule="evenodd" d="M270.832 143.225V146.674C268.714 149.896 259.773 150.31 259.189 145.658C263.866 146.5 266.328 141.159 270.832 143.225Z" fill="white"/>
<path fill-rule="evenodd" clip-rule="evenodd" d="M296.99 101.104C297.654 95.5925 304.604 96.5923 307.617 99.304C312.608 103.8 316.946 116.929 316.43 128.606C316.153 134.842 314.968 143.487 310.986 143.771C307.936 143.988 306.226 139.929 305.282 137.604C303.94 134.276 303.47 131.505 302.694 128.348C292.774 130.464 286.583 124.295 286.362 114.469C279.605 116.52 269.162 116.515 262.776 113.442C260.887 112.533 258.573 110.483 258.628 108.815C258.759 104.984 267.499 104.187 272.625 104.187C271.925 102.615 268.513 101.896 268.482 99.304C268.432 95.6221 273.753 95 278.07 95.1926C285.455 95.5212 293.357 98.5809 296.99 101.104Z" fill="#EB5401"/>
<path d="M310.728 128.338C310.45 126.324 308.73 124.847 306.659 124.641C307.074 126.926 307.23 129.405 307.234 131.52C307.238 132.581 307.225 133.666 307.2 134.76C309.586 134.169 311.04 130.626 310.728 128.338Z" fill="#EAD2AF"/>
<path fill-rule="evenodd" clip-rule="evenodd" d="M305.379 101.643C306.409 99.2929 310.294 104.262 308.848 105.515C307.138 106.985 305.283 103.278 305.296 101.874C305.301 101.784 305.345 101.724 305.379 101.643Z" fill="white"/>
<path fill-rule="evenodd" clip-rule="evenodd" d="M305.855 108.109C306.946 106.338 310.454 110.338 308.578 111.411C307.16 112.224 305.1 109.331 305.855 108.109Z" fill="white"/>
<path fill-rule="evenodd" clip-rule="evenodd" d="M358.161 204.174C355.039 193.659 351.142 183.557 344.164 175.643C338.221 168.908 329.38 162.302 317.668 161.788C310.793 169.593 302.122 174.829 293.251 179.909C289.375 191.805 288.486 208.275 290.509 221.909C292.098 232.624 295.542 241.185 299.583 249.155C303.804 257.486 308.418 265.69 309.815 276.207C328.311 278.087 346.423 279.643 367.234 279.226C367.515 251.768 364.766 226.445 358.161 204.174Z" fill="#018C96"/>
<path d="M358.161 204.174C355.039 193.659 351.142 183.557 344.164 175.643C338.291 168.988 329.591 162.466 318.084 161.815C319.03 162.448 320.225 162.788 321.094 163.306C329.613 168.389 335.968 175.526 341.831 183.096C349.324 192.769 353.534 204.884 357.124 218.311C361.862 236.027 364.126 257.852 365.736 279.273L367.235 279.227C367.364 252.542 364.604 225.897 358.161 204.174Z" fill="#016A66"/>
<path fill-rule="evenodd" clip-rule="evenodd" d="M293.878 183.869C292.826 183.423 292.573 181.554 292.324 179.756C292.123 178.309 291.557 175.902 291.806 174.871C292.076 173.733 295.351 171.284 297.25 169.733C302.816 165.188 309.991 159.143 314.615 155.339C317.001 153.372 321.334 160.343 321.094 163.049C320.902 165.246 317.039 167.764 315.136 169.216C310.161 173.019 306.353 176.192 301.655 179.756C299.448 181.433 297.079 183.319 293.878 183.869Z" fill="#016A66"/>
<path fill-rule="evenodd" clip-rule="evenodd" d="M208.717 260.032C207.613 261.082 203.267 263.91 201.766 265.888C201.18 266.652 200.719 267.722 201.277 268.356C202.459 269.694 205.68 267.156 206.925 266.429C209.086 265.157 210.663 264.402 212.475 263.268C211.377 264.633 207.149 267.355 205.168 269.683C204.345 270.657 203.574 271.922 204.337 272.711C205.297 273.714 208.183 271.922 209.172 271.351C213.94 268.6 219.273 265.566 223.489 264.122C228.339 262.466 232.754 261.667 237.77 261.599C238.979 261.58 241.575 262.042 242.477 261.247C242.904 260.871 243.261 259.441 243.308 258.887C243.472 256.997 242.958 254.757 242.456 251.947C242.265 250.866 242.121 249.789 241.685 248.473C241.335 247.404 240.943 245.52 240.568 245.118C239.994 244.477 237.91 244.174 236.677 244.009C233.069 243.529 227.96 243.253 224.971 242.932C222.376 242.661 219.651 242.371 217.164 242.071C214.808 241.788 207.073 240.804 206.289 243.718C205.644 246.116 213.267 246.191 215.049 247.009C211.729 247.855 206.59 250.048 201.998 253.45C200.795 254.342 198.172 256.097 198.748 257.27C199.532 258.879 201.676 257.56 202.769 257.145C204.291 256.563 205.473 256.283 206.691 255.557C205.26 257.066 201.289 259.517 199.85 261.528C199.384 262.179 199.07 263.143 199.483 263.66C200.444 264.843 202.394 263.296 203.862 262.522C205.863 261.461 207.231 260.905 208.599 260.146C208.633 260.109 208.675 260.071 208.717 260.032Z" fill="#EAD2AF"/>
<path fill-rule="evenodd" clip-rule="evenodd" d="M232.058 265.426C231.847 257.906 231.316 249.169 232.349 242.111C252.587 239.928 273.283 238.198 294.519 236.994C295.737 234.13 296.61 230.842 297.408 227.609C301.36 211.698 305.064 195.491 311.579 180.694C313.865 175.499 317.929 167.122 324.012 167.047C335.084 166.909 336.736 185.479 336.736 196.616C336.736 208.259 334.926 221.193 332.4 233.294C329.669 246.359 325.596 258.265 316.784 264.003C306.961 270.401 287.713 268.837 274.857 268.837C259.44 268.837 246.014 267.825 232.058 265.426Z" fill="#016A66"/>
<path d="M291.059 244.166C293.31 246.175 298.025 250.383 299.574 248.565C300.679 247.263 298.375 243.693 297.262 241.741C296.352 240.15 295.443 238.525 294.484 236.995C291.573 237.159 288.701 237.359 285.811 237.543C287.003 240.014 289.061 242.382 291.059 244.166Z" fill="#018C96"/>
<path fill-rule="evenodd" clip-rule="evenodd" d="M298.331 260.735C300.211 259.736 303.366 258.586 304.165 259.902C305.194 261.601 303.05 262.303 301.458 262.982C299.88 263.661 297.895 264.444 297.169 263.031C296.377 261.49 297.593 261.128 298.331 260.735Z" fill="white"/>
<path fill-rule="evenodd" clip-rule="evenodd" d="M309.29 260.263C310.633 259.418 312.282 259.221 312.835 260.46C313.779 262.582 308.949 264.695 308.129 262.561C307.824 261.751 308.184 260.964 309.29 260.263Z" fill="white"/>
<path fill-rule="evenodd" clip-rule="evenodd" d="M333.372 172.591C335.509 173.304 339.763 181.319 336.905 182.571C334.567 183.587 330.984 176.43 331.678 173.898C331.857 173.242 332.177 172.895 333.372 172.591Z" fill="white"/>
<path fill-rule="evenodd" clip-rule="evenodd" d="M331.135 184.789C333.398 182.797 335.36 186.885 333.984 188.052C332.138 189.623 329.14 186.546 331.135 184.789Z" fill="white"/>
<path fill-rule="evenodd" clip-rule="evenodd" d="M339.101 185.865C341.581 184.426 344.522 190.672 342.087 191.691C341.065 192.12 340.49 191.563 339.6 190.467C338.296 188.851 337.369 186.872 339.101 185.865Z" fill="white"/>
<path d="M368.208 279.367C368.208 280.323 367.431 281.095 366.467 281.095H310.341C309.38 281.095 308.599 280.323 308.599 279.367V274.606C308.599 273.654 309.38 272.882 310.341 272.882H366.467C367.431 272.882 368.208 273.654 368.208 274.606V279.367Z" fill="#016A66"/>
</g>
<defs>
<clipPath id="clip0_250:841">
<rect width="478" height="474" fill="white"/>
</clipPath>
</defs>
</svg>
