<svg width="24" height="25" viewBox="0 0 24 25" fill="none" xmlns="http://www.w3.org/2000/svg">
<g clip-path="url(#clip0_19_1018)">
<path d="M24 23.7001H0V24.5001H24V23.7001Z" fill="black"/>
<path d="M1.59995 22.9H5.59995C5.82085 22.9 5.99995 22.7209 5.99995 22.5V15.3C5.99995 15.0791 5.82085 14.9 5.59995 14.9H1.59995C1.37905 14.9 1.19995 15.0791 1.19995 15.3V22.5C1.19995 22.7209 1.37905 22.9 1.59995 22.9ZM1.99995 15.7H5.19995V22.1H1.99995V15.7Z" fill="black"/>
<path d="M12.7999 22.9H16.7999C17.0208 22.9 17.1999 22.7209 17.1999 22.5V10.5C17.1999 10.2791 17.0208 10.1 16.7999 10.1H12.7999C12.579 10.1 12.3999 10.2791 12.3999 10.5V22.5C12.3999 22.7209 12.579 22.9 12.7999 22.9ZM13.1999 10.9H16.3999V22.1H13.1999V10.9Z" fill="black"/>
<path d="M7.20005 22.9H11.2C11.4209 22.9 11.6 22.7209 11.6 22.5V5.69999C11.6 5.47909 11.4209 5.29999 11.2 5.29999H7.20005C6.97915 5.29999 6.80005 5.47909 6.80005 5.69999V22.5C6.80005 22.7209 6.97915 22.9 7.20005 22.9ZM7.60005 6.09999H10.8V22.1H7.60005V6.09999Z" fill="black"/>
<path d="M18.4 22.9H22.4C22.6209 22.9 22.8 22.7209 22.8 22.5V0.9C22.8 0.6791 22.6209 0.5 22.4 0.5H18.4C18.1791 0.5 18 0.6791 18 0.9V22.5C18 22.7209 18.1791 22.9 18.4 22.9ZM18.8 1.3H22V22.1H18.8V1.3Z" fill="black"/>
</g>
<defs>
<clipPath id="clip0_19_1018">
<rect width="24" height="24" fill="white" transform="translate(0 0.5)"/>
</clipPath>
</defs>
</svg>
