<svg width="24" height="25" viewBox="0 0 24 25" fill="none" xmlns="http://www.w3.org/2000/svg">
<g clip-path="url(#clip0_19_1013)">
<path d="M21.1875 2.375H20.0625V0.5H18.1875V2.375H5.8125V0.5H3.9375V2.375H2.8125C1.26169 2.375 0 3.63669 0 5.1875V21.6875C0 23.2383 1.26169 24.5 2.8125 24.5H21.1875C22.7383 24.5 24 23.2383 24 21.6875V5.1875C24 3.63669 22.7383 2.375 21.1875 2.375ZM22.125 21.6875C22.125 22.2044 21.7044 22.625 21.1875 22.625H2.8125C2.29556 22.625 1.875 22.2044 1.875 21.6875V9.3125H22.125V21.6875ZM22.125 7.4375H1.875V5.1875C1.875 4.67056 2.29556 4.25 2.8125 4.25H3.9375V6.125H5.8125V4.25H18.1875V6.125H20.0625V4.25H21.1875C21.7044 4.25 22.125 4.67056 22.125 5.1875V7.4375Z" fill="black"/>
<path d="M5.4375 11.2812H3.5625V13.1562H5.4375V11.2812Z" fill="black"/>
<path d="M9.1875 11.2812H7.3125V13.1562H9.1875V11.2812Z" fill="black"/>
<path d="M12.9375 11.2812H11.0625V13.1562H12.9375V11.2812Z" fill="black"/>
<path d="M16.6875 11.2812H14.8125V13.1562H16.6875V11.2812Z" fill="black"/>
<path d="M20.4375 11.2812H18.5625V13.1562H20.4375V11.2812Z" fill="black"/>
<path d="M5.4375 15.0312H3.5625V16.9062H5.4375V15.0312Z" fill="black"/>
<path d="M9.1875 15.0312H7.3125V16.9062H9.1875V15.0312Z" fill="black"/>
<path d="M12.9375 15.0312H11.0625V16.9062H12.9375V15.0312Z" fill="black"/>
<path d="M16.6875 15.0312H14.8125V16.9062H16.6875V15.0312Z" fill="black"/>
<path d="M5.4375 18.7812H3.5625V20.6562H5.4375V18.7812Z" fill="black"/>
<path d="M9.1875 18.7812H7.3125V20.6562H9.1875V18.7812Z" fill="black"/>
<path d="M12.9375 18.7812H11.0625V20.6562H12.9375V18.7812Z" fill="black"/>
<path d="M16.6875 18.7812H14.8125V20.6562H16.6875V18.7812Z" fill="black"/>
<path d="M20.4375 15.0312H18.5625V16.9062H20.4375V15.0312Z" fill="black"/>
</g>
<defs>
<clipPath id="clip0_19_1013">
<rect width="24" height="24" fill="white" transform="translate(0 0.5)"/>
</clipPath>
</defs>
</svg>
