<svg width="24" height="24" viewBox="0 0 24 24" fill="none" xmlns="http://www.w3.org/2000/svg">
<path d="M23.0625 16.5C23.5802 16.5 24 16.0803 24 15.5625V5.625C24 3.55725 22.3177 1.875 20.25 1.875H19.0312V0.9375C19.0312 0.419719 18.6115 0 18.0937 0C17.5759 0 17.1562 0.419719 17.1562 0.9375V1.875H12.8906V0.9375C12.8906 0.419719 12.4709 0 11.9531 0C11.4353 0 11.0156 0.419719 11.0156 0.9375V1.875H6.79686V0.9375C6.79686 0.419719 6.37714 0 5.85936 0C5.34158 0 4.92187 0.419719 4.92187 0.9375V1.875H3.74999C1.68225 1.875 0 3.55725 0 5.625V20.25C0 22.3177 1.68225 24 3.74999 24H20.25C22.3177 24 24 22.3177 24 20.25C24 19.7322 23.5802 19.3125 23.0625 19.3125C22.5447 19.3125 22.125 19.7322 22.125 20.25C22.125 21.2839 21.2838 22.125 20.25 22.125H3.74999C2.71612 22.125 1.875 21.2839 1.875 20.25V5.625C1.875 4.59113 2.71612 3.75 3.74999 3.75H4.92187V4.6875C4.92187 5.20528 5.34158 5.625 5.85936 5.625C6.37714 5.625 6.79686 5.20528 6.79686 4.6875V3.75H11.0156V4.6875C11.0156 5.20528 11.4353 5.625 11.9531 5.625C12.4709 5.625 12.8906 5.20528 12.8906 4.6875V3.75H17.1562V4.6875C17.1562 5.20528 17.5759 5.625 18.0937 5.625C18.6115 5.625 19.0312 5.20528 19.0312 4.6875V3.75H20.25C21.2838 3.75 22.125 4.59113 22.125 5.625V15.5625C22.125 16.0803 22.5447 16.5 23.0625 16.5Z" fill="black"/>
<path d="M16.1596 9.81368L11.5387 16.2684C11.4125 16.4147 11.2543 16.4463 11.1696 16.4519C11.0823 16.458 10.913 16.4465 10.7678 16.3084L7.77626 13.4358C7.40262 13.0772 6.80919 13.0893 6.45073 13.4627C6.09214 13.8362 6.10414 14.4296 6.47759 14.7882L9.47215 17.6636C9.92065 18.0905 10.5193 18.3281 11.1352 18.3281C11.1881 18.3281 11.2412 18.3263 11.2943 18.3228C11.9652 18.278 12.5917 17.9517 13.013 17.4276C13.0239 17.414 13.0344 17.4002 13.0445 17.386L17.6843 10.9051C17.9857 10.4841 17.8887 9.89843 17.4677 9.59707C17.0466 9.29571 16.461 9.39265 16.1596 9.81368Z" fill="black"/>
</svg>
