<svg width="49" height="48" viewBox="0 0 49 48" fill="none" xmlns="http://www.w3.org/2000/svg">
<g clip-path="url(#clip0_12:2516)">
<path d="M24.5 0C11.2664 0 0.5 10.7665 0.5 24.0001C0.5 37.2337 11.2664 48 24.5 48C37.7336 48 48.5 37.2337 48.5 24.0001C48.5 10.7665 37.7336 0 24.5 0ZM24.5 43.6364C13.6724 43.6364 4.86364 34.8276 4.86364 24.0001C4.86364 13.1727 13.6724 4.36364 24.5 4.36364C35.3276 4.36364 44.1364 13.1727 44.1364 24.0001C44.1364 34.8276 35.3275 43.6364 24.5 43.6364Z" fill="black"/>
<path d="M24.4998 10.1819C22.896 10.1819 21.5913 11.4875 21.5913 13.0923C21.5913 14.6956 22.896 16.0001 24.4998 16.0001C26.1036 16.0001 27.4083 14.6956 27.4083 13.0923C27.4083 11.4875 26.1036 10.1819 24.4998 10.1819Z" fill="black"/>
<path d="M24.4999 20.3636C23.295 20.3636 22.3181 21.3405 22.3181 22.5455V35.6364C22.3181 36.8413 23.295 37.8182 24.4999 37.8182C25.7049 37.8182 26.6818 36.8413 26.6818 35.6364V22.5455C26.6818 21.3405 25.7049 20.3636 24.4999 20.3636Z" fill="black"/>
</g>
<defs>
<clipPath id="clip0_12:2516">
<rect width="48" height="48" fill="white" transform="translate(0.5)"/>
</clipPath>
</defs>
</svg>
