<svg width="48" height="48" viewBox="0 0 48 48" fill="none" xmlns="http://www.w3.org/2000/svg">
<path d="M40.5367 11.3993C41.886 10.2975 42.75 8.6235 42.75 6.75C42.75 3.44175 40.0582 0.75 36.75 0.75C33.4418 0.75 30.75 3.44175 30.75 6.75C30.75 8.5425 31.5443 10.1497 32.7945 11.25H23.25V4.5C23.25 2.43225 21.5677 0.75 19.5 0.75C17.4323 0.75 15.75 2.43225 15.75 4.5V11.25H15.375C13.9275 11.25 12.75 12.4275 12.75 13.875C12.75 15.3225 13.9275 16.5 15.375 16.5H15.75V22.0605L18.7343 25.0448L15 26.9115L10.5 24.6615L5.25 27.2865V33.2865L0.75 35.5365V42.4635L6 45.0885L10.5 42.8385L15 45.0885L19.5 42.8385L24 45.0885L29.25 42.4635V35.5365L24.75 33.2865V27.2865L20.2657 25.0448L23.25 22.0605V16.5H28.875C29.4953 16.5 30 17.0047 30 17.625V35.7135L30.4148 35.9205C30.4598 35.943 30.8655 36.1417 31.5 36.3907V44.25C31.5 45.9045 32.8455 47.25 34.5 47.25C35.4007 47.25 36.1995 46.8435 36.75 46.2135C37.3005 46.8435 38.0993 47.25 39 47.25C40.6545 47.25 42 45.9045 42 44.25V36.3907C42.6353 36.1425 43.041 35.943 43.0852 35.9205L43.5 35.7135V28.5C45.5677 28.5 47.25 26.8177 47.25 24.75V19.5C47.25 15.4763 44.3527 12.1215 40.5367 11.3993V11.3993ZM36.636 15.2692L34.488 12.75H38.8447L36.636 15.2692ZM32.25 6.75C32.25 4.26825 34.2682 2.25 36.75 2.25C39.2318 2.25 41.25 4.26825 41.25 6.75C41.25 9.23175 39.2318 11.25 36.75 11.25C34.2682 11.25 32.25 9.23175 32.25 6.75ZM17.25 20.25V9.75H21.75V20.25H17.25ZM21.4395 21.75L19.5 23.6895L17.5605 21.75H21.4395ZM21.75 8.25H17.25V6.75H21.75V8.25ZM19.5 2.25C20.7405 2.25 21.75 3.2595 21.75 4.5V5.25H17.25V4.5C17.25 3.2595 18.2595 2.25 19.5 2.25ZM15.375 15C14.7547 15 14.25 14.4953 14.25 13.875C14.25 13.2547 14.7547 12.75 15.375 12.75H15.75V15H15.375ZM6.75 28.2135L10.5 26.3385L14.25 28.2135V33.2865L10.5 35.1615L6.75 33.2865V28.2135ZM9.75 41.5365L6 43.4115L2.25 41.5365V36.4635L6 34.5885L9.75 36.4635V41.5365ZM15 43.4115L11.25 41.5365V36.4635L15 34.5885L18.75 36.4635V41.5365L15 43.4115ZM27.75 41.5365L24 43.4115L20.25 41.5365V36.4635L24 34.5885L27.75 36.4635V41.5365ZM23.25 33.2865L19.5 35.1615L15.75 33.2865V28.2135L19.5 26.3385L23.25 28.2135V33.2865ZM28.875 15H23.25V12.75H32.5177L35.637 16.4085L34.4888 17.718V35.7338C33.1928 35.4525 32.0752 35.0168 31.5007 34.7685V17.625C31.5 16.1775 30.3225 15 28.875 15ZM34.5 45.75C33.6727 45.75 33 45.0773 33 44.25V36.9038C33.885 37.164 34.9238 37.392 36 37.4692V44.25C36 45.0773 35.3273 45.75 34.5 45.75ZM40.5 44.25C40.5 45.0773 39.8273 45.75 39 45.75C38.1727 45.75 37.5 45.0773 37.5 44.25V37.4692C38.5762 37.392 39.615 37.164 40.5 36.9038V44.25ZM45.75 24.75C45.75 25.9905 44.7405 27 43.5 27V16.5H42V34.7685C41.1082 35.1555 38.913 36 36.75 36C36.4958 36 36.2415 35.9865 35.988 35.9647V18.282L40.6522 12.963C43.5772 13.7033 45.75 16.3492 45.75 19.5V24.75Z" fill="black"/>
</svg>
