<svg width="24" height="24" viewBox="0 0 24 24" fill="none" xmlns="http://www.w3.org/2000/svg">
<g clip-path="url(#clip0_253:600)">
<path d="M15.7019 0C11.2292 0 7.59028 3.63891 7.59028 8.11167C7.59028 9.10603 7.76695 10.0723 8.11579 10.9899L0.359679 18.7466C0.24882 18.8575 0.186523 19.0079 0.186523 19.1646V23.4089C0.186523 23.7353 0.451179 24 0.777663 24H4.27528C4.43189 24 4.58208 23.9379 4.69294 23.8272L5.87161 22.6503C5.9827 22.5394 6.04509 22.3889 6.04509 22.232V20.7847H7.49057C7.81706 20.7847 8.08171 20.52 8.08171 20.1935V19.6141H8.66113C8.98757 19.6141 9.25227 19.3495 9.25227 19.023V17.751H10.5243C10.681 17.751 10.8313 17.6887 10.9423 17.5778L12.8229 15.6972C13.7407 16.0463 14.7071 16.2233 15.7018 16.2233C20.1746 16.2233 23.8135 12.5843 23.8135 8.11158C23.8135 3.63891 20.1747 0 15.7019 0ZM15.7019 15.041C14.7343 15.041 13.7985 14.8455 12.9204 14.46C12.6934 14.3604 12.4377 14.4152 12.2702 14.5784C12.2684 14.5801 12.2666 14.5815 12.2648 14.5834L10.2795 16.5687H8.66123C8.33474 16.5687 8.07009 16.8334 8.07009 17.1599V18.4319H7.49067C7.16423 18.4319 6.89953 18.6965 6.89953 19.023V19.6024H5.454C5.12756 19.6024 4.86286 19.867 4.86286 20.1935V21.9868L4.03069 22.8177H1.3689V21.9823L8.59424 14.757C8.80204 14.5492 8.80204 14.2124 8.59424 14.0046C8.38645 13.7969 8.0497 13.7968 7.84176 14.0046L1.3689 20.4775V19.4095L9.22963 11.5482C9.23141 11.5464 9.23277 11.5448 9.23441 11.5431C9.39763 11.3758 9.45266 11.1201 9.35301 10.8928C8.96788 10.0148 8.77269 9.07898 8.77269 8.11172C8.77269 4.29084 11.8812 1.18233 15.7021 1.18233C19.5229 1.18233 22.6314 4.2908 22.6314 8.11172C22.6313 11.9325 19.5227 15.041 15.7019 15.041Z" fill="black"/>
<path d="M18.1705 3.42862C16.9495 3.42862 15.9562 4.4219 15.9562 5.64285C15.9562 6.86381 16.9495 7.85709 18.1705 7.85709C19.3914 7.85709 20.3847 6.86381 20.3847 5.64285C20.3847 4.4219 19.3915 3.42862 18.1705 3.42862ZM18.1705 6.67481C17.6015 6.67481 17.1385 6.21187 17.1385 5.64285C17.1385 5.07384 17.6015 4.6109 18.1705 4.6109C18.7395 4.6109 19.2024 5.07384 19.2024 5.64285C19.2024 6.21187 18.7395 6.67481 18.1705 6.67481Z" fill="black"/>
</g>
<defs>
<clipPath id="clip0_253:600">
<rect width="24" height="24" fill="white"/>
</clipPath>
</defs>
</svg>
