<svg width="24" height="24" viewBox="0 0 24 24" fill="none" xmlns="http://www.w3.org/2000/svg">
<path d="M22.6278 22.7711L21.5661 16.5553C21.4517 15.8856 20.9766 15.3476 20.3261 15.1514L17.4624 14.2874C17.4031 13.5873 17.1161 12.9269 16.6384 12.4042C16.2564 11.986 15.7758 11.6816 15.2461 11.5136C15.3367 11.413 15.4208 11.3127 15.4979 11.2147C16.1789 10.3485 16.5435 9.39436 16.6363 8.74322H16.8572C17.4318 8.74322 17.8993 8.27578 17.8993 7.70114V7.16695C17.8993 6.78347 17.6836 6.43598 17.3591 6.25566V4.97109C17.3591 4.77698 17.2018 4.61963 17.0077 4.61963C16.8136 4.61963 16.6563 4.77694 16.6563 4.97109V6.41316C16.5194 6.43692 16.3561 6.47798 16.189 6.54834C16.1719 6.55458 16.1553 6.5618 16.1395 6.57047C16.1018 6.58767 16.064 6.60581 16.0263 6.62625V3.79397C16.0263 3.01148 15.3898 2.37492 14.6073 2.37492H13.6372C13.3026 2.37492 12.9758 2.4915 12.7167 2.70328L12.6215 2.78109C12.4467 2.92406 12.226 3.00281 12.0001 3.00281C11.7742 3.00281 11.5535 2.92406 11.3787 2.78109L11.2835 2.70328C11.0245 2.49155 10.6976 2.37492 10.363 2.37492H9.39285C8.61036 2.37492 7.9738 3.01148 7.9738 3.79397V6.62625C7.93616 6.60581 7.89838 6.58767 7.86065 6.57047C7.8449 6.5618 7.8283 6.55458 7.81119 6.54834C7.64413 6.47798 7.48077 6.43692 7.34395 6.41316V2.7668C7.34395 1.62877 8.26982 0.702891 9.40785 0.702891H14.5923C15.7303 0.702891 16.6562 1.62877 16.6562 2.7668V3.31927C16.6562 3.51337 16.8135 3.67073 17.0076 3.67073C17.2016 3.67073 17.359 3.51342 17.359 3.31927V2.7668C17.359 1.2412 16.1178 0 14.5923 0H9.40785C7.88221 0 6.64106 1.2412 6.64106 2.7668V6.2557C6.31663 6.43603 6.10092 6.78347 6.10092 7.167V7.70119C6.10092 8.27583 6.5684 8.74327 7.14299 8.74327H7.36391C7.45668 9.39441 7.82132 10.3486 8.50232 11.2147C8.57933 11.3127 8.66333 11.4128 8.7539 11.5133C7.53609 11.9002 6.64799 12.9951 6.53779 14.2874L3.67401 15.1514C3.02353 15.3476 2.54841 15.8856 2.43403 16.5553L2.00288 19.0795C1.97021 19.2708 2.09883 19.4524 2.29013 19.485C2.48138 19.5178 2.66302 19.3891 2.69574 19.1978L3.12689 16.6736C3.19608 16.2684 3.48352 15.943 3.87703 15.8243L6.5257 15.0252V15.7204C5.91857 15.8321 5.40196 16.2492 5.1892 16.827C5.13272 16.9804 5.09761 17.141 5.08486 17.3043L4.82887 20.59C4.80956 20.8375 4.8952 21.084 5.06372 21.2661C5.23223 21.4482 5.47125 21.5527 5.71945 21.5527H6.15763C6.35174 21.5527 6.5091 21.3954 6.5091 21.2013C6.5091 21.0071 6.35174 20.8499 6.15763 20.8499H5.71945C5.66653 20.8499 5.61562 20.8276 5.57967 20.7887C5.54376 20.7499 5.52553 20.6974 5.52965 20.6447L5.78564 17.3589C5.79337 17.26 5.8146 17.1627 5.84882 17.0699C5.99685 16.6679 6.3966 16.3957 6.84365 16.3926L6.90154 16.3921C6.90426 16.3921 6.90693 16.3921 6.9096 16.3921C7.34409 16.3921 7.72869 16.6385 7.89093 17.0215C7.93644 17.1289 7.9641 17.2424 7.97319 17.3589L8.22927 20.6447C8.23335 20.6974 8.21512 20.7499 8.17921 20.7888C8.1433 20.8276 8.09235 20.8499 8.03943 20.8499H7.60124C7.40713 20.8499 7.24977 21.0072 7.24977 21.2013C7.24977 21.3954 7.40713 21.5527 7.60124 21.5527H8.03943C8.28763 21.5527 8.52669 21.4483 8.69516 21.2661C8.86372 21.0839 8.94936 20.8374 8.93005 20.59L8.67397 17.3043C8.65897 17.112 8.61327 16.9245 8.53813 16.7472C8.30661 16.2008 7.81157 15.8209 7.22854 15.7181V14.8131L8.43669 14.4486C8.54661 14.6801 8.76444 15.1804 9.19593 16.2588C9.63078 17.347 10.1713 18.7417 10.6897 20.0977C10.6934 20.109 10.6977 20.1202 10.7024 20.131C11.0484 21.0362 11.384 21.9228 11.671 22.6876C11.7224 22.8248 11.8535 22.9156 12 22.9156C12.1465 22.9156 12.2776 22.8248 12.3291 22.6876C12.6161 21.9228 12.9516 21.0362 13.2976 20.131C13.3024 20.1202 13.3067 20.109 13.3104 20.0977C13.8284 18.7425 14.3686 17.3487 14.8033 16.2608C15.2353 15.181 15.4534 14.6803 15.5633 14.4486L16.7715 14.8131V16.889C15.9344 17.0516 15.3003 17.7899 15.3003 18.6738C15.3003 19.6765 16.1161 20.4923 17.1188 20.4923C18.1216 20.4923 18.9373 19.6766 18.9373 18.6738C18.9373 17.7928 18.3074 17.0563 17.4744 16.8905V15.0252L20.1231 15.8244C20.5166 15.9431 20.804 16.2685 20.8732 16.6737L21.9349 22.8894C21.9526 22.9925 21.9251 23.0933 21.8577 23.1732C21.7903 23.2531 21.6955 23.2972 21.591 23.2972H2.4091C2.30452 23.2972 2.20983 23.2531 2.14238 23.1732C2.07497 23.0933 2.0475 22.9926 2.06513 22.8894L2.41552 20.8381C2.44819 20.6467 2.31956 20.4652 2.12827 20.4325C1.93702 20.3997 1.75538 20.5285 1.72266 20.7198L1.37227 22.7711C1.32 23.0773 1.40489 23.3891 1.60514 23.6265C1.80549 23.8639 2.0985 24 2.4091 24H21.591C21.9016 24 22.1946 23.8639 22.3949 23.6265C22.5952 23.389 22.6801 23.0773 22.6278 22.7711ZM16.6604 7.12917C16.8476 7.08248 16.998 7.08333 16.9997 7.08337C17.0602 7.08417 17.1191 7.07002 17.1714 7.04259C17.1871 7.08155 17.1963 7.12341 17.1963 7.167V7.70119C17.1963 7.88822 17.0441 8.04037 16.8571 8.04037H16.6604V7.12917ZM7.33968 8.04037H7.14295C6.95591 8.04037 6.80376 7.88822 6.80376 7.70119V7.167C6.80376 7.12341 6.81304 7.08155 6.82865 7.04264C6.88091 7.07006 6.93979 7.08422 7.0004 7.08337C7.00307 7.08384 7.15298 7.083 7.33968 7.12936V8.04037ZM8.04257 8.43445V7.51111C8.14907 7.54303 8.26555 7.53867 8.37308 7.49381C8.55754 7.41684 8.67669 7.23811 8.67669 7.03837V3.79397C8.67669 3.39909 8.99797 3.07781 9.39285 3.07781H10.3629C10.5358 3.07781 10.7047 3.13805 10.8385 3.24745L10.9337 3.32527C11.2337 3.57061 11.6124 3.70566 12 3.70566C12.3876 3.70566 12.7663 3.57056 13.0664 3.32527L13.1615 3.24745C13.2953 3.13805 13.4643 3.07781 13.6371 3.07781H14.6072C15.0021 3.07781 15.3234 3.39909 15.3234 3.79397V7.03842C15.3234 7.23811 15.4425 7.41689 15.627 7.49386C15.6886 7.51955 15.7531 7.53202 15.817 7.53202C15.8647 7.53202 15.912 7.52503 15.9575 7.51144V8.43445C15.9575 8.94759 15.6027 9.94406 14.9453 10.7802C14.7275 11.0572 14.4476 11.3548 14.1029 11.6148C14.092 11.6221 14.0815 11.6301 14.0715 11.6385C13.5376 12.0333 12.851 12.3357 12 12.3357C11.1491 12.3357 10.4625 12.0333 9.92849 11.6385C9.9185 11.6301 9.9081 11.6221 9.89722 11.6149C9.55255 11.3548 9.27261 11.0572 9.05479 10.7802C8.39736 9.94411 8.04257 8.94759 8.04257 8.43445ZM14.3025 14.1127L12 15.8336L9.69753 14.1127C9.92586 13.8225 10.0538 13.4499 10.0538 13.1175V12.551C10.5952 12.8422 11.2413 13.0387 12 13.0387C12.7587 13.0387 13.4049 12.8422 13.9463 12.551V13.1175C13.9463 13.4499 14.0742 13.8225 14.3025 14.1127ZM9.11099 13.7204C8.9233 13.6489 8.71522 13.6372 8.5184 13.6905C8.50977 13.6926 8.50133 13.6949 8.49313 13.6973L7.27893 14.0637C7.48429 13.0539 8.30422 12.2502 9.35089 12.0945V13.1175C9.35089 13.338 9.25246 13.566 9.11099 13.7204ZM10.0648 16.5417C10.0642 16.54 10.0635 16.5384 10.0629 16.5368C10.0451 16.4918 10.0275 16.4473 10.0101 16.4034C10.007 16.3954 10.0038 16.3875 10.0007 16.3796C9.98361 16.3366 9.96669 16.294 9.95 16.252C9.94883 16.2491 9.94766 16.2462 9.94649 16.2432C9.89441 16.1122 9.84421 15.9867 9.79592 15.8663C9.79241 15.8576 9.78889 15.8488 9.78538 15.8401C9.7715 15.8056 9.75786 15.7716 9.74432 15.738C9.73935 15.7257 9.73442 15.7135 9.7295 15.7013C9.71638 15.6688 9.70335 15.6365 9.6905 15.6048C9.68666 15.5954 9.68291 15.5862 9.67911 15.5767C9.65582 15.5193 9.63303 15.4633 9.61082 15.4087C9.60482 15.3939 9.59867 15.3788 9.59272 15.3643C9.584 15.343 9.57552 15.3223 9.56699 15.3014C9.5578 15.2789 9.54861 15.2566 9.53961 15.2347C9.53624 15.2265 9.53272 15.2178 9.52935 15.2096C9.52663 15.2031 9.52414 15.197 9.52147 15.1905C9.48088 15.0919 9.4423 14.9989 9.40569 14.9115C9.40541 14.9108 9.40508 14.9101 9.4048 14.9094C9.3853 14.8628 9.36622 14.8174 9.34789 14.7741C9.33838 14.7516 9.329 14.7295 9.31982 14.7079L11.3 16.1879L10.4726 16.5394C10.4712 16.54 10.4697 16.5406 10.4682 16.5413L10.1227 16.6881C10.1031 16.6385 10.084 16.59 10.0648 16.5417ZM10.9034 18.6936C10.834 18.5135 10.7641 18.3323 10.694 18.1513C10.5844 17.8682 10.4797 17.5991 10.3796 17.3427L10.5107 17.2869L11.0466 17.9099L10.9034 18.6936ZM12.0068 21.5501C11.9967 21.5292 11.9847 21.5094 11.9709 21.4911C11.8121 21.0713 11.6105 20.5402 11.3874 19.9558L11.7155 18.1593H12.2845L12.6126 19.9558C12.3789 20.568 12.1689 21.1216 12.0068 21.5501ZM12.4163 17.4564H11.5837L11.1898 16.9985L12 16.6543L12.8103 16.9985L12.4163 17.4564ZM13.3061 18.1513C13.236 18.3323 13.166 18.5135 13.0966 18.6936L12.9535 17.9098L13.4893 17.2869L13.6205 17.3426C13.5203 17.599 13.4157 17.8682 13.3061 18.1513ZM14.6522 14.7741C14.6348 14.8151 14.6167 14.8582 14.5983 14.9022C14.5959 14.9079 14.5935 14.9137 14.5911 14.9194C14.5729 14.963 14.5543 15.0075 14.5351 15.0539C14.5338 15.057 14.5325 15.0602 14.5312 15.0633C14.5146 15.1033 14.4976 15.1445 14.4803 15.1866C14.4771 15.1944 14.474 15.2017 14.4708 15.2096C14.467 15.219 14.4628 15.229 14.4589 15.2385C14.4513 15.2573 14.4434 15.2764 14.4356 15.2955C14.4259 15.3191 14.4163 15.3426 14.4064 15.3668C14.4033 15.3744 14.4 15.3825 14.3968 15.3902C14.3724 15.4501 14.3472 15.5119 14.3216 15.5754C14.3175 15.5853 14.3135 15.5951 14.3095 15.6052C14.2968 15.6365 14.2839 15.6685 14.2709 15.7007C14.2658 15.7133 14.2607 15.7259 14.2556 15.7387C14.2422 15.7719 14.2287 15.8055 14.215 15.8397C14.2111 15.8492 14.2072 15.8589 14.2034 15.8685C14.1557 15.9872 14.1063 16.111 14.0549 16.24C14.0532 16.2443 14.0516 16.2484 14.0499 16.2527C14.0333 16.2944 14.0165 16.3368 13.9995 16.3795C13.9964 16.3875 13.9932 16.3954 13.99 16.4034C13.9725 16.4476 13.9548 16.4922 13.9369 16.5375C13.9366 16.5384 13.9362 16.5392 13.9359 16.54C13.9166 16.5889 13.8972 16.638 13.8774 16.6882L13.5316 16.5413C13.5304 16.5407 13.5292 16.5402 13.528 16.5397L12.7001 16.188L14.6803 14.708C14.6711 14.7295 14.6617 14.7516 14.6522 14.7741ZM15.5069 13.6973C15.5069 13.6973 15.5068 13.6973 15.5067 13.6973C15.5065 13.6972 15.5061 13.6972 15.5058 13.697C15.3019 13.6358 15.0844 13.646 14.8891 13.7204C14.7476 13.566 14.6492 13.338 14.6492 13.1175V12.094C15.7024 12.2492 16.5199 13.0454 16.7226 14.0641L15.5069 13.6973ZM18.2344 18.6738C18.2344 19.289 17.734 19.7895 17.1188 19.7895C16.5037 19.7895 16.0032 19.289 16.0032 18.6738C16.0032 18.0586 16.5037 17.5582 17.1188 17.5582C17.734 17.5582 18.2344 18.0586 18.2344 18.6738Z" fill="black"/>
</svg>
