<svg width="24" height="24" viewBox="0 0 24 24" fill="none" xmlns="http://www.w3.org/2000/svg">
<g clip-path="url(#clip0_289:501)">
<path d="M23.25 3.375H22.125V0.375C22.125 0.275544 22.0854 0.180161 22.0151 0.109835C21.9448 0.0395088 21.8494 0 21.75 0C21.6505 0 21.5551 0.0395088 21.4848 0.109835C21.4145 0.180161 21.375 0.275544 21.375 0.375V3.375H20.25C20.1505 3.375 20.0551 3.41451 19.9848 3.48484C19.9145 3.55516 19.875 3.65054 19.875 3.75V7.875H18C17.9005 7.875 17.8051 7.91451 17.7348 7.98483C17.6645 8.05516 17.625 8.15054 17.625 8.25C17.625 8.34946 17.6645 8.44484 17.7348 8.51517C17.8051 8.58549 17.9005 8.625 18 8.625H22.875V10.125H9.37498C9.27553 10.125 9.18014 10.1645 9.10982 10.2348C9.03949 10.3052 8.99998 10.4005 8.99998 10.5C8.99998 10.5995 9.03949 10.6948 9.10982 10.7652C9.18014 10.8355 9.27553 10.875 9.37498 10.875H11.625V16.125H6.37499V10.875H7.87499C7.97444 10.875 8.06982 10.8355 8.14015 10.7652C8.21048 10.6948 8.24998 10.5995 8.24998 10.5C8.24998 10.4005 8.21048 10.3052 8.14015 10.2348C8.06982 10.1645 7.97444 10.125 7.87499 10.125H1.125V8.625H16.5C16.5994 8.625 16.6948 8.58549 16.7651 8.51517C16.8355 8.44484 16.875 8.34946 16.875 8.25C16.875 8.15054 16.8355 8.05516 16.7651 7.98483C16.6948 7.91451 16.5994 7.875 16.5 7.875H15.375V6.375C15.375 4.75012 13.1373 3.51225 12.375 3.13762V0.375C12.375 0.275544 12.3355 0.180161 12.2651 0.109835C12.1948 0.0395088 12.0994 0 12 0C11.9005 0 11.8051 0.0395088 11.7348 0.109835C11.6645 0.180161 11.625 0.275544 11.625 0.375V3.13762C10.8626 3.51262 8.62498 4.75012 8.62498 6.375V7.875H4.12499V3.75C4.12499 3.65054 4.08548 3.55516 4.01516 3.48484C3.94483 3.41451 3.84945 3.375 3.74999 3.375H2.625V0.375C2.625 0.275544 2.58549 0.180161 2.51516 0.109835C2.44483 0.0395088 2.34945 0 2.25 0C2.15054 0 2.05516 0.0395088 1.98483 0.109835C1.91451 0.180161 1.875 0.275544 1.875 0.375V3.375H0.749999C0.650543 3.375 0.555161 3.41451 0.484835 3.48484C0.414509 3.55516 0.375 3.65054 0.375 3.75V23.625C0.375 23.7245 0.414509 23.8198 0.484835 23.8902C0.555161 23.9605 0.650543 24 0.749999 24H23.25C23.3494 24 23.4448 23.9605 23.5151 23.8902C23.5854 23.8198 23.625 23.7245 23.625 23.625V3.75C23.625 3.65054 23.5854 3.55516 23.5151 3.48484C23.4448 3.41451 23.3494 3.375 23.25 3.375ZM20.625 7.875V4.125H22.875V7.875H20.625ZM22.875 16.125H18.375V10.875H22.875V16.125ZM12.375 10.875H17.625V16.125H12.375V10.875ZM5.62499 10.875V16.125H1.125V10.875H5.62499ZM9.37498 6.375C9.37498 5.2875 11.145 4.20375 12 3.7875C12.855 4.2 14.625 5.28413 14.625 6.375V7.875H12.375V6C12.375 5.90054 12.3355 5.80516 12.2651 5.73484C12.1948 5.66451 12.0994 5.625 12 5.625C11.9005 5.625 11.8051 5.66451 11.7348 5.73484C11.6645 5.80516 11.625 5.90054 11.625 6V7.875H9.37498V6.375ZM1.125 4.125H3.37499V7.875H1.125V4.125ZM3.37499 21.375C3.27554 21.375 3.18016 21.4145 3.10983 21.4848C3.0395 21.5552 2.99999 21.6505 2.99999 21.75V23.25H1.125V16.875H5.62499V23.25H3.74999V21.75C3.74999 21.6505 3.71048 21.5552 3.64016 21.4848C3.56983 21.4145 3.47445 21.375 3.37499 21.375ZM8.99998 21.375C8.90053 21.375 8.80514 21.4145 8.73482 21.4848C8.66449 21.5552 8.62498 21.6505 8.62498 21.75V23.25H6.37499V16.875H11.625V23.25H9.37498V21.75C9.37498 21.6505 9.33547 21.5552 9.26515 21.4848C9.19482 21.4145 9.09944 21.375 8.99998 21.375ZM15 21.375C14.9005 21.375 14.8051 21.4145 14.7348 21.4848C14.6645 21.5552 14.625 21.6505 14.625 21.75V23.25H12.375V16.875H17.625V23.25H15.375V21.75C15.375 21.6505 15.3355 21.5552 15.2651 21.4848C15.1948 21.4145 15.0994 21.375 15 21.375ZM21 23.25V21.75C21 21.6505 20.9605 21.5552 20.8901 21.4848C20.8198 21.4145 20.7244 21.375 20.625 21.375C20.5255 21.375 20.4301 21.4145 20.3598 21.4848C20.2895 21.5552 20.25 21.6505 20.25 21.75V23.25H18.375V16.875H22.875V23.25H21Z" fill="black"/>
<path d="M3.375 14.625C3.47446 14.625 3.56984 14.5855 3.64016 14.5152C3.71049 14.4448 3.75 14.3495 3.75 14.25V12.75C3.75 12.6505 3.71049 12.5552 3.64016 12.4848C3.56984 12.4145 3.47446 12.375 3.375 12.375C3.27554 12.375 3.18016 12.4145 3.10983 12.4848C3.03951 12.5552 3 12.6505 3 12.75V14.25C3 14.3495 3.03951 14.4448 3.10983 14.5152C3.18016 14.5855 3.27554 14.625 3.375 14.625Z" fill="black"/>
<path d="M3.75 18.375C3.75 18.2755 3.71049 18.1802 3.64016 18.1098C3.56984 18.0395 3.47446 18 3.375 18C3.27554 18 3.18016 18.0395 3.10983 18.1098C3.03951 18.1802 3 18.2755 3 18.375V19.875C3 19.9745 3.03951 20.0698 3.10983 20.1402C3.18016 20.2105 3.27554 20.25 3.375 20.25C3.47446 20.25 3.56984 20.2105 3.64016 20.1402C3.71049 20.0698 3.75 19.9745 3.75 19.875V18.375Z" fill="black"/>
<path d="M8.625 14.25C8.625 14.3495 8.66451 14.4448 8.73483 14.5152C8.80516 14.5855 8.90054 14.625 9 14.625C9.09945 14.625 9.19484 14.5855 9.26516 14.5152C9.33549 14.4448 9.375 14.3495 9.375 14.25V12.75C9.375 12.6505 9.33549 12.5552 9.26516 12.4848C9.19484 12.4145 9.09945 12.375 9 12.375C8.90054 12.375 8.80516 12.4145 8.73483 12.4848C8.66451 12.5552 8.625 12.6505 8.625 12.75V14.25Z" fill="black"/>
<path d="M9.375 18.375C9.375 18.2755 9.33549 18.1802 9.26516 18.1098C9.19484 18.0395 9.09945 18 9 18C8.90054 18 8.80516 18.0395 8.73483 18.1098C8.66451 18.1802 8.625 18.2755 8.625 18.375V19.875C8.625 19.9745 8.66451 20.0698 8.73483 20.1402C8.80516 20.2105 8.90054 20.25 9 20.25C9.09945 20.25 9.19484 20.2105 9.26516 20.1402C9.33549 20.0698 9.375 19.9745 9.375 19.875V18.375Z" fill="black"/>
<path d="M15 12.375C14.9005 12.375 14.8052 12.4145 14.7348 12.4848C14.6645 12.5552 14.625 12.6505 14.625 12.75V14.25C14.625 14.3495 14.6645 14.4448 14.7348 14.5152C14.8052 14.5855 14.9005 14.625 15 14.625C15.0995 14.625 15.1948 14.5855 15.2652 14.5152C15.3355 14.4448 15.375 14.3495 15.375 14.25V12.75C15.375 12.6505 15.3355 12.5552 15.2652 12.4848C15.1948 12.4145 15.0995 12.375 15 12.375Z" fill="black"/>
<path d="M15.375 18.375C15.375 18.2755 15.3355 18.1802 15.2652 18.1098C15.1948 18.0395 15.0995 18 15 18C14.9005 18 14.8052 18.0395 14.7348 18.1098C14.6645 18.1802 14.625 18.2755 14.625 18.375V19.875C14.625 19.9745 14.6645 20.0698 14.7348 20.1402C14.8052 20.2105 14.9005 20.25 15 20.25C15.0995 20.25 15.1948 20.2105 15.2652 20.1402C15.3355 20.0698 15.375 19.9745 15.375 19.875V18.375Z" fill="black"/>
<path d="M20.625 14.625C20.7245 14.625 20.8198 14.5855 20.8902 14.5152C20.9605 14.4448 21 14.3495 21 14.25V12.75C21 12.6505 20.9605 12.5552 20.8902 12.4848C20.8198 12.4145 20.7245 12.375 20.625 12.375C20.5255 12.375 20.4302 12.4145 20.3598 12.4848C20.2895 12.5552 20.25 12.6505 20.25 12.75V14.25C20.25 14.3495 20.2895 14.4448 20.3598 14.5152C20.4302 14.5855 20.5255 14.625 20.625 14.625Z" fill="black"/>
<path d="M20.625 18C20.5255 18 20.4302 18.0395 20.3598 18.1098C20.2895 18.1802 20.25 18.2755 20.25 18.375V19.875C20.25 19.9745 20.2895 20.0698 20.3598 20.1402C20.4302 20.2105 20.5255 20.25 20.625 20.25C20.7245 20.25 20.8198 20.2105 20.8902 20.1402C20.9605 20.0698 21 19.9745 21 19.875V18.375C21 18.2755 20.9605 18.1802 20.8902 18.1098C20.8198 18.0395 20.7245 18 20.625 18Z" fill="black"/>
</g>
<defs>
<clipPath id="clip0_289:501">
<rect width="24" height="24" fill="white"/>
</clipPath>
</defs>
</svg>
