<svg width="24" height="24" viewBox="0 0 24 24" fill="none" xmlns="http://www.w3.org/2000/svg">
<path d="M11.8183 12.6972C13.2334 12.6972 14.3804 11.5499 14.3804 10.135C14.3804 8.7199 13.2334 7.57275 11.8183 7.57275C10.4031 7.57275 9.2561 8.7199 9.2561 10.135C9.25781 11.5493 10.4039 12.6953 11.8183 12.6972ZM11.8183 8.5689C12.6859 8.5689 13.3892 9.27218 13.3892 10.1399C13.3892 11.0075 12.6859 11.711 11.8183 11.711C10.9506 11.711 10.2473 11.0075 10.2473 10.1399C10.2474 9.27234 10.9507 8.56921 11.8183 8.5689Z" fill="black"/>
<path d="M11.8183 13.6438C10.77 13.636 9.76392 14.0568 9.03308 14.8084C8.28969 15.5667 7.8833 16.5975 7.8833 17.7175C7.88408 17.9909 8.10539 18.2124 8.37889 18.2131H15.2576C15.5311 18.2124 15.7524 17.9909 15.7532 17.7175C15.7532 16.5975 15.3468 15.5667 14.6034 14.8084C13.8727 14.0568 12.8665 13.636 11.8183 13.6438ZM8.90918 17.2219C8.99389 16.574 9.28614 15.9709 9.74178 15.5022C10.2902 14.9473 11.0381 14.6349 11.8183 14.6349C12.5984 14.6349 13.3463 14.9473 13.8947 15.5022C14.3494 15.9713 14.6413 16.5743 14.7273 17.2219H8.90918Z" fill="black"/>
<path d="M17.7655 0.753296H5.87128C4.50298 0.753915 3.39378 1.86296 3.39331 3.23127V20.7753C3.39378 22.1436 4.50298 23.2527 5.87128 23.2533H17.7655C19.1338 23.2527 20.2429 22.1436 20.2435 20.7753V3.23127C20.2429 1.86296 19.1338 0.753915 17.7655 0.753296ZM19.2523 20.7753C19.25 21.5954 18.5856 22.2598 17.7655 22.2621H5.87128C5.05123 22.2598 4.38682 21.5954 4.3845 20.7753V3.23127C4.38682 2.41122 5.05123 1.74681 5.87128 1.74449H17.7655C18.5856 1.74681 19.25 2.41122 19.2523 3.23127V20.7753Z" fill="black"/>
<path d="M9.7517 4.07874H13.7164C13.9901 4.07874 14.212 3.85681 14.212 3.58315C14.212 3.30949 13.9901 3.08755 13.7164 3.08755H9.7517C9.47788 3.08755 9.2561 3.30949 9.2561 3.58315C9.2561 3.85681 9.47788 4.07874 9.7517 4.07874V4.07874Z" fill="black"/>
</svg>
