<svg width="48" height="48" viewBox="0 0 48 48" fill="none" xmlns="http://www.w3.org/2000/svg">
<path d="M15.9998 34.4H14.3998C13.958 34.4 13.5998 34.7582 13.5998 35.2C13.5998 35.6418 13.958 36 14.3998 36H15.9998C16.4416 36 16.7998 35.6418 16.7998 35.2C16.7998 34.7582 16.4416 34.4 15.9998 34.4Z" fill="black"/>
<path d="M38.3998 34.4H19.1998C18.7579 34.4 18.3997 34.7582 18.3997 35.2C18.3997 35.6418 18.7579 36 19.1998 36H38.3998C38.8416 36 39.1998 35.6418 39.1998 35.2C39.1998 34.7582 38.8416 34.4 38.3998 34.4Z" fill="black"/>
<path d="M15.9998 29.6H14.3998C13.958 29.6 13.5998 29.9582 13.5998 30.4C13.5998 30.8418 13.958 31.2 14.3998 31.2H15.9998C16.4416 31.2 16.7998 30.8418 16.7998 30.4C16.7998 29.9582 16.4416 29.6 15.9998 29.6Z" fill="black"/>
<path d="M38.3998 29.6H19.1998C18.7579 29.6 18.3997 29.9582 18.3997 30.4C18.3997 30.8418 18.7579 31.2 19.1998 31.2H38.3998C38.8416 31.2 39.1998 30.8418 39.1998 30.4C39.1998 29.9582 38.8416 29.6 38.3998 29.6Z" fill="black"/>
<path d="M15.9998 24.8H14.3998C13.958 24.8 13.5998 25.1582 13.5998 25.6C13.5998 26.0418 13.958 26.4 14.3998 26.4H15.9998C16.4416 26.4 16.7998 26.0418 16.7998 25.6C16.7998 25.1582 16.4416 24.8 15.9998 24.8Z" fill="black"/>
<path d="M38.3998 24.8H19.1998C18.7579 24.8 18.3997 25.1582 18.3997 25.6C18.3997 26.0418 18.7579 26.4 19.1998 26.4H38.3998C38.8416 26.4 39.1998 26.0418 39.1998 25.6C39.1998 25.1582 38.8416 24.8 38.3998 24.8Z" fill="black"/>
<path d="M15.9998 20H14.3998C13.958 20 13.5998 20.3582 13.5998 20.8C13.5998 21.2418 13.958 21.6 14.3998 21.6H15.9998C16.4416 21.6 16.7998 21.2418 16.7998 20.8C16.7998 20.3582 16.4416 20 15.9998 20Z" fill="black"/>
<path d="M38.3998 20H19.1998C18.7579 20 18.3997 20.3582 18.3997 20.8C18.3997 21.2418 18.7579 21.6 19.1998 21.6H38.3998C38.8416 21.6 39.1998 21.2418 39.1998 20.8C39.1998 20.3582 38.8416 20 38.3998 20Z" fill="black"/>
<path d="M15.9998 15.2H14.3998C13.958 15.2 13.5998 15.5582 13.5998 16C13.5998 16.4418 13.958 16.8 14.3998 16.8H15.9998C16.4416 16.8 16.7998 16.4418 16.7998 16C16.7998 15.5582 16.4416 15.2 15.9998 15.2Z" fill="black"/>
<path d="M38.3998 15.2H19.1998C18.7579 15.2 18.3997 15.5582 18.3997 16C18.3997 16.4418 18.7579 16.8 19.1998 16.8H38.3998C38.8416 16.8 39.1998 16.4418 39.1998 16C39.1998 15.5582 38.8416 15.2 38.3998 15.2Z" fill="black"/>
<path d="M43.9894 11.9496C43.9854 11.8795 43.9717 11.8103 43.9486 11.744C43.9398 11.7184 43.9334 11.6936 43.9222 11.6688C43.8833 11.5818 43.8291 11.5024 43.7622 11.4344L32.5622 0.2344C32.4942 0.1675 32.4148 0.1133 32.3278 0.0744C32.303 0.0632 32.2782 0.0568 32.2534 0.048C32.1865 0.025 32.1168 0.011 32.0462 0.0064C32.0326 0.0088 32.0174 0 31.9998 0H9.59976C9.15796 0 8.79976 0.3582 8.79976 0.8V3.2H4.79976C4.35796 3.2 3.99976 3.5582 3.99976 4V47.2C3.99976 47.6418 4.35796 48 4.79976 48H38.3998C38.8416 48 39.1998 47.6418 39.1998 47.2V43.2H43.1998C43.6416 43.2 43.9998 42.8418 43.9998 42.4V12C43.9998 11.9824 43.991 11.9672 43.9894 11.9496ZM32.7998 2.7312L41.2686 11.2H32.7998V2.7312ZM37.5998 46.4H5.59976V4.8H8.79976V42.4C8.79976 42.8418 9.15796 43.2 9.59976 43.2H37.5998V46.4ZM42.3998 41.6H10.3998V1.6H31.1998V12C31.1998 12.4418 31.558 12.8 31.9998 12.8H42.3998V41.6Z" fill="black"/>
<path d="M19.1998 7.20001H14.3998C13.958 7.20001 13.5998 7.55821 13.5998 8.00001V12.8C13.5998 13.2418 13.958 13.6 14.3998 13.6H19.1998C19.6416 13.6 19.9998 13.2418 19.9998 12.8V8.00001C19.9998 7.55821 19.6416 7.20001 19.1998 7.20001ZM18.3998 12H15.1998V8.80001H18.3998V12Z" fill="black"/>
</svg>
