<svg width="24" height="24" viewBox="0 0 24 24" fill="none" xmlns="http://www.w3.org/2000/svg">
<path d="M12 0C5.38349 0 0 5.3835 0 12C0 18.6165 5.38349 24 12 24C18.6165 24 24 18.6165 24 12C24 5.3835 18.6165 0 12 0ZM12 22.5C6.20999 22.5 1.5 17.79 1.5 12C1.5 6.21 6.20999 1.5 12 1.5C17.79 1.5 22.5 6.21 22.5 12C22.5 17.79 17.79 22.5 12 22.5Z" fill="black"/>
<path d="M12 5.25C8.73076 5.25 5.99852 7.587 5.38202 10.677L4.35002 9.3015L3.15002 10.2015L5.40002 13.2015C5.54702 13.398 5.77277 13.5015 6.00077 13.5015C6.15677 13.5015 6.31502 13.4528 6.45002 13.3515L9.45001 11.1015L8.55001 9.9015L6.81752 11.2013C7.20452 8.685 9.37726 6.75 12 6.75C13.869 6.75 15.612 7.75725 16.5488 9.378L17.847 8.62725C16.6433 6.5445 14.403 5.25 12 5.25Z" fill="black"/>
<path d="M18.5857 11.5312C18.3277 11.208 17.8582 11.1555 17.5357 11.4112L14.6857 13.6612L15.6149 14.838L17.1734 13.6072C16.7617 16.095 14.6017 18 11.9999 18C10.1317 18 8.38868 16.9942 7.45193 15.3742L6.15369 16.1257C7.35818 18.207 9.59768 19.5 11.9999 19.5C15.2984 19.5 18.0464 17.1202 18.6307 13.989L19.8142 15.4687L20.9857 14.532L18.5857 11.5312Z" fill="black"/>
</svg>
