<svg width="24" height="24" viewBox="0 0 24 24" fill="none" xmlns="http://www.w3.org/2000/svg">
<path d="M20.2683 5.69963C20.943 5.14875 21.375 4.31175 21.375 3.375C21.375 1.72088 20.0291 0.375 18.375 0.375C16.7208 0.375 15.375 1.72088 15.375 3.375C15.375 4.27125 15.7721 5.07487 16.3972 5.625H11.625V2.25C11.625 1.21613 10.7839 0.375 9.74998 0.375C8.71611 0.375 7.87499 1.21613 7.87499 2.25V5.625H7.68749C6.96374 5.625 6.37499 6.21375 6.37499 6.9375C6.37499 7.66125 6.96374 8.25 7.68749 8.25H7.87499V11.0302L9.36711 12.5224L7.49999 13.4557L5.24999 12.3307L2.625 13.6432V16.6432L0.375 17.7682V21.2318L2.99999 22.5443L5.24999 21.4193L7.49999 22.5443L9.74998 21.4193L12 22.5443L14.625 21.2318V17.7682L12.375 16.6432V13.6432L10.1329 12.5224L11.625 11.0302V8.25H14.4375C14.7476 8.25 15 8.50237 15 8.8125V17.8568L15.2073 17.9603C15.2298 17.9715 15.4327 18.0709 15.75 18.1954V22.125C15.75 22.9523 16.4227 23.625 17.25 23.625C17.7003 23.625 18.0997 23.4218 18.375 23.1068C18.6502 23.4218 19.0496 23.625 19.5 23.625C20.3272 23.625 21 22.9523 21 22.125V18.1954C21.3176 18.0712 21.5205 17.9715 21.5426 17.9603L21.75 17.8568V14.25C22.7838 14.25 23.625 13.4089 23.625 12.375V9.75C23.625 7.73813 22.1763 6.06075 20.2683 5.69963V5.69963ZM18.318 7.63462L17.244 6.375H19.4223L18.318 7.63462ZM16.125 3.375C16.125 2.13412 17.1341 1.125 18.375 1.125C19.6158 1.125 20.625 2.13412 20.625 3.375C20.625 4.61588 19.6158 5.625 18.375 5.625C17.1341 5.625 16.125 4.61588 16.125 3.375ZM8.62498 10.125V4.875H10.875V10.125H8.62498ZM10.7197 10.875L9.74998 11.8448L8.78023 10.875H10.7197ZM10.875 4.125H8.62498V3.375H10.875V4.125ZM9.74998 1.125C10.3702 1.125 10.875 1.62975 10.875 2.25V2.625H8.62498V2.25C8.62498 1.62975 9.12973 1.125 9.74998 1.125ZM7.68749 7.5C7.37736 7.5 7.12499 7.24763 7.12499 6.9375C7.12499 6.62737 7.37736 6.375 7.68749 6.375H7.87499V7.5H7.68749ZM3.37499 14.1068L5.24999 13.1693L7.12499 14.1068V16.6432L5.24999 17.5807L3.37499 16.6432V14.1068ZM4.87499 20.7682L2.99999 21.7057L1.125 20.7682V18.2318L2.99999 17.2943L4.87499 18.2318V20.7682ZM7.49999 21.7057L5.62499 20.7682V18.2318L7.49999 17.2943L9.37498 18.2318V20.7682L7.49999 21.7057ZM13.875 20.7682L12 21.7057L10.125 20.7682V18.2318L12 17.2943L13.875 18.2318V20.7682ZM11.625 16.6432L9.74998 17.5807L7.87499 16.6432V14.1068L9.74998 13.1693L11.625 14.1068V16.6432ZM14.4375 7.5H11.625V6.375H16.2588L17.8185 8.20425L17.2443 8.859V17.8669C16.5963 17.7263 16.0376 17.5084 15.7503 17.3843V8.8125C15.75 8.08875 15.1612 7.5 14.4375 7.5ZM17.25 22.875C16.8363 22.875 16.5 22.5386 16.5 22.125V18.4519C16.9425 18.582 17.4618 18.696 18 18.7346V22.125C18 22.5386 17.6636 22.875 17.25 22.875ZM20.25 22.125C20.25 22.5386 19.9136 22.875 19.5 22.875C19.0863 22.875 18.75 22.5386 18.75 22.125V18.7346C19.2881 18.696 19.8075 18.582 20.25 18.4519V22.125ZM22.875 12.375C22.875 12.9953 22.3702 13.5 21.75 13.5V8.25H21V17.3843C20.5541 17.5778 19.4565 18 18.375 18C18.2478 18 18.1207 17.9932 17.994 17.9824V9.141L20.3261 6.4815C21.7886 6.85163 22.875 8.17462 22.875 9.75V12.375Z" fill="black"/>
<path d="M18.75 9.375H19.5V10.125H18.75V9.375Z" fill="black"/>
<path d="M18.75 10.875H19.5V11.625H18.75V10.875Z" fill="black"/>
<path d="M18.75 12.375H19.5V13.125H18.75V12.375Z" fill="black"/>
<path d="M18.75 13.875H19.5V14.625H18.75V13.875Z" fill="black"/>
</svg>
