<svg width="24" height="25" viewBox="0 0 24 25" fill="none" xmlns="http://www.w3.org/2000/svg">
<g clip-path="url(#clip0_19_1024)">
<path d="M12.7531 24.5H11.2469C10.0286 24.5 9.03745 23.5089 9.03745 22.2906V21.7811C8.51953 21.6156 8.01633 21.4067 7.53291 21.1565L7.17178 21.5177C6.29714 22.3934 4.89609 22.3677 4.04686 21.5173L2.98228 20.4528C2.13155 19.603 2.10708 18.2024 2.98256 17.3279L3.34341 16.967C3.09323 16.4836 2.88441 15.9805 2.71889 15.4625H2.20936C0.991172 15.4625 0 14.4714 0 13.2531V11.7469C0 10.5286 0.991172 9.5375 2.20941 9.5375H2.71894C2.88445 9.01953 3.09328 8.51638 3.34345 8.03295L2.98233 7.67188C2.10736 6.79784 2.1315 5.39712 2.98261 4.54695L4.04728 3.48233C4.89848 2.62995 6.2992 2.60867 7.17216 3.48261L7.53295 3.84341C8.01638 3.59328 8.51958 3.38441 9.0375 3.21889V2.70936C9.0375 1.49112 10.0286 0.5 11.2469 0.5H12.7531C13.9714 0.5 14.9625 1.49112 14.9625 2.70936V3.21894C15.4804 3.38441 15.9836 3.59328 16.467 3.84345L16.8282 3.48233C17.7028 2.60661 19.1039 2.6323 19.9531 3.48266L21.0177 4.54719C21.8684 5.39698 21.8929 6.79756 21.0174 7.67211L20.6565 8.03295C20.9067 8.51638 21.1155 9.01948 21.2811 9.5375H21.7906C23.0088 9.5375 24 10.5286 24 11.7469V13.2531C24 14.4714 23.0088 15.4625 21.7906 15.4625H21.2811C21.1155 15.9805 20.9067 16.4836 20.6565 16.967L21.0177 17.3282C21.8926 18.2022 21.8685 19.6029 21.0174 20.4531L19.9527 21.5177C19.1015 22.3701 17.7008 22.3914 16.8278 21.5174L16.467 21.1566C15.9836 21.4068 15.4804 21.6156 14.9625 21.7812V22.2907C14.9625 23.5089 13.9714 24.5 12.7531 24.5ZM7.76798 19.6798C8.43956 20.077 9.16238 20.3771 9.91631 20.5716C10.2268 20.6518 10.4438 20.9318 10.4438 21.2525V22.2906C10.4438 22.7335 10.8041 23.0938 11.2469 23.0938H12.7531C13.196 23.0938 13.5563 22.7335 13.5563 22.2906V21.2525C13.5563 20.9318 13.7732 20.6518 14.0837 20.5716C14.8377 20.3771 15.5605 20.077 16.2321 19.6798C16.5084 19.5164 16.8602 19.5609 17.0872 19.7879L17.8226 20.5233C18.1396 20.8407 18.6488 20.8334 18.9581 20.5236L20.0234 19.4584C20.3319 19.1502 20.3422 18.641 20.0237 18.3228L19.288 17.5871C19.061 17.3601 19.0166 17.0083 19.1799 16.732C19.5771 16.0605 19.8771 15.3377 20.0717 14.5837C20.1518 14.2732 20.4319 14.0563 20.7525 14.0563H21.7906C22.2335 14.0563 22.5938 13.696 22.5938 13.2532V11.7469C22.5938 11.3041 22.2335 10.9438 21.7906 10.9438H20.7525C20.4318 10.9438 20.1518 10.7269 20.0717 10.4164C19.8771 9.66242 19.5771 8.93961 19.1799 8.26808C19.0166 7.9918 19.061 7.63995 19.288 7.41298L20.0234 6.67756C20.3413 6.36003 20.333 5.85097 20.0237 5.54202L18.9585 4.47678C18.6497 4.16759 18.1404 4.15855 17.8229 4.4765L17.0872 5.2122C16.8603 5.43922 16.5083 5.48366 16.2321 5.32025C15.5605 4.92308 14.8377 4.62303 14.0838 4.42845C13.7733 4.34834 13.5563 4.06831 13.5563 3.74764V2.70936C13.5563 2.26653 13.196 1.90625 12.7532 1.90625H11.247C10.8041 1.90625 10.4438 2.26653 10.4438 2.70936V3.74755C10.4438 4.06822 10.2269 4.34825 9.91636 4.42836C9.16242 4.62294 8.43961 4.92298 7.76803 5.32016C7.49166 5.48352 7.13986 5.43908 6.91289 5.21211L6.17752 4.47669C5.86045 4.15925 5.35125 4.16661 5.04202 4.47636L3.97669 5.54164C3.66816 5.8498 3.65784 6.359 3.97641 6.67719L4.71211 7.41289C4.93908 7.63986 4.98352 7.9917 4.82016 8.26798C4.42298 8.93952 4.12298 9.66233 3.92841 10.4163C3.84825 10.7268 3.56822 10.9437 3.24759 10.9437H2.20941C1.76658 10.9437 1.40625 11.304 1.40625 11.7469V13.2531C1.40625 13.696 1.76658 14.0563 2.20941 14.0563H3.24755C3.56822 14.0563 3.8482 14.2732 3.92836 14.5836C4.12294 15.3376 4.42298 16.0604 4.82011 16.732C4.98347 17.0083 4.93903 17.3601 4.71206 17.5871L3.97664 18.3225C3.65873 18.64 3.66703 19.1491 3.97636 19.458L5.04159 20.5233C5.35036 20.8325 5.85961 20.8415 6.17714 20.5235L6.9128 19.7878C7.08005 19.6206 7.428 19.4788 7.76798 19.6798Z" fill="black"/>
<path d="M11.9999 17.7218C9.12056 17.7218 6.77808 15.3793 6.77808 12.4999C6.77808 9.62061 9.12056 7.27808 11.9999 7.27808C14.8793 7.27808 17.2218 9.62061 17.2218 12.4999C17.2218 15.3793 14.8793 17.7218 11.9999 17.7218ZM11.9999 8.68433C9.89597 8.68433 8.18433 10.396 8.18433 12.4999C8.18433 14.6039 9.89601 16.3156 11.9999 16.3156C14.1039 16.3156 15.8156 14.6039 15.8156 12.4999C15.8156 10.396 14.1039 8.68433 11.9999 8.68433Z" fill="black"/>
</g>
<defs>
<clipPath id="clip0_19_1024">
<rect width="24" height="24" fill="white" transform="translate(0 0.5)"/>
</clipPath>
</defs>
</svg>
