<svg width="24" height="25" viewBox="0 0 24 25" fill="none" xmlns="http://www.w3.org/2000/svg">
<path d="M22.3049 5.68403H19.6314V3.09667C19.6314 2.42899 19.0883 1.88586 18.4206 1.88586H5.57941C4.91172 1.88586 4.3686 2.42899 4.3686 3.09667V5.68403H1.69513C0.760486 5.68403 0 6.44452 0 7.37916V21.4188C0 22.3535 0.760486 23.114 1.69513 23.114H22.3049C23.2395 23.114 24 22.3535 24 21.4188V7.37916C24 6.44442 23.2395 5.68403 22.3049 5.68403ZM5.82157 3.33884H18.1785V5.68403H5.82157V3.33884ZM1.69513 7.137H22.3049C22.4361 7.137 22.547 7.24791 22.547 7.37916V11.736H15.2026V11.0851C15.2026 10.4174 14.6595 9.8743 13.9918 9.8743H10.0082C9.34048 9.8743 8.79736 10.4174 8.79736 11.0851V11.736H1.45297V7.37916C1.45297 7.24782 1.56388 7.137 1.69513 7.137ZM13.7497 11.3274V13.6726H10.2503V11.3274H13.7497ZM22.3049 21.661H1.69513C1.56388 21.661 1.45297 21.5502 1.45297 21.4188V13.189H8.79736V13.9146C8.79736 14.5823 9.34048 15.1254 10.0082 15.1254H13.9918C14.6595 15.1254 15.2026 14.5823 15.2026 13.9146V13.189H22.547V21.4188C22.547 21.5502 22.4361 21.661 22.3049 21.661Z" fill="#000002"/>
</svg>
