<svg width="56" height="56" viewBox="0 0 56 56" fill="none" xmlns="http://www.w3.org/2000/svg">
<rect width="56" height="56" rx="8" fill="#F6EBF9"/>
<path d="M39 28.9792H17C16.448 28.9792 16 28.5312 16 27.9792C16 27.4272 16.448 26.9792 17 26.9792H39C39.552 26.9792 40 27.4272 40 27.9792C40 28.5312 39.552 28.9792 39 28.9792Z" fill="#EB5401"/>
<path d="M39 21.3126H17C16.448 21.3126 16 20.8646 16 20.3126C16 19.7606 16.448 19.3126 17 19.3126H39C39.552 19.3126 40 19.7606 40 20.3126C40 20.8646 39.552 21.3126 39 21.3126Z" fill="#EB5401"/>
<path d="M39 36.6458H17C16.448 36.6458 16 36.1978 16 35.6458C16 35.0938 16.448 34.6458 17 34.6458H39C39.552 34.6458 40 35.0938 40 35.6458C40 36.1978 39.552 36.6458 39 36.6458Z" fill="#EB5401"/>
</svg>
