<svg width="24" height="24" viewBox="0 0 24 24" fill="none" xmlns="http://www.w3.org/2000/svg">
<path d="M11.8289 11.5609C13.4171 11.5609 14.7922 10.9913 15.9161 9.86735C17.0397 8.74364 17.6095 7.3687 17.6095 5.78026C17.6095 4.19237 17.0399 2.81726 15.916 1.69317C14.7921 0.56964 13.4169 0 11.8289 0C10.2404 0 8.8655 0.56964 7.74179 1.69336C6.61807 2.81707 6.04825 4.19219 6.04825 5.78026C6.04825 7.3687 6.61807 8.74382 7.74179 9.86753C8.86587 10.9911 10.241 11.5609 11.8289 11.5609ZM8.73641 2.6878C9.59866 1.82556 10.6101 1.40643 11.8289 1.40643C13.0474 1.40643 14.0591 1.82556 14.9215 2.6878C15.7838 3.55023 16.2031 4.56188 16.2031 5.78026C16.2031 6.99901 15.7838 8.01048 14.9215 8.87291C14.0591 9.73533 13.0474 10.1545 11.8289 10.1545C10.6105 10.1545 9.59902 9.73515 8.73641 8.87291C7.87399 8.01067 7.45468 6.99901 7.45468 5.78026C7.45468 4.56188 7.87399 3.55023 8.73641 2.6878Z" fill="black"/>
<path d="M21.9435 18.4548C21.9111 17.9871 21.8455 17.477 21.749 16.9383C21.6516 16.3956 21.5262 15.8825 21.376 15.4136C21.2208 14.9289 21.01 14.4503 20.7491 13.9916C20.4786 13.5155 20.1608 13.101 19.8041 12.7599C19.4311 12.403 18.9744 12.1161 18.4464 11.9068C17.9201 11.6986 17.3369 11.5931 16.7131 11.5931C16.4681 11.5931 16.2311 11.6936 15.7736 11.9915C15.4919 12.1752 15.1625 12.3876 14.7949 12.6225C14.4805 12.8228 14.0546 13.0105 13.5285 13.1804C13.0153 13.3465 12.4942 13.4308 11.9796 13.4308C11.4655 13.4308 10.9443 13.3465 10.4307 13.1804C9.90523 13.0107 9.47914 12.823 9.1653 12.6227C8.8011 12.39 8.47151 12.1776 8.18569 11.9914C7.72847 11.6935 7.49154 11.5929 7.24654 11.5929C6.62252 11.5929 6.03951 11.6986 5.51345 11.907C4.98574 12.1159 4.5289 12.4028 4.15554 12.76C3.79886 13.1013 3.48098 13.5157 3.21072 13.9916C2.95016 14.4503 2.73923 14.9287 2.58395 15.4138C2.43399 15.8827 2.30856 16.3956 2.21115 16.9383C2.11447 17.4763 2.0491 17.9866 2.01669 18.4553C1.98483 18.9137 1.96872 19.3906 1.96872 19.8726C1.96872 21.1254 2.36697 22.1396 3.15231 22.8876C3.92794 23.6257 4.95407 23.9999 6.20229 23.9999H17.7584C19.0063 23.9999 20.0324 23.6257 20.8082 22.8876C21.5937 22.1401 21.992 21.1256 21.992 19.8724C21.9918 19.3888 21.9755 18.9118 21.9435 18.4548ZM19.8385 21.8686C19.326 22.3564 18.6456 22.5935 17.7582 22.5935H6.20229C5.31478 22.5935 4.63436 22.3564 4.12204 21.8688C3.61941 21.3903 3.37515 20.7372 3.37515 19.8726C3.37515 19.4229 3.38998 18.9788 3.41964 18.5526C3.44858 18.1344 3.50772 17.6749 3.59543 17.1868C3.68203 16.7047 3.79226 16.2522 3.92337 15.8426C4.04916 15.4499 4.22073 15.0609 4.4335 14.6863C4.63656 14.3292 4.8702 14.0229 5.12802 13.7761C5.36916 13.5452 5.67312 13.3562 6.03127 13.2145C6.36251 13.0834 6.73476 13.0116 7.13888 13.0008C7.18813 13.027 7.27584 13.077 7.41793 13.1696C7.70705 13.3581 8.0403 13.573 8.40871 13.8083C8.82399 14.0731 9.35903 14.3122 9.99825 14.5186C10.6517 14.7299 11.3182 14.8372 11.9798 14.8372C12.6414 14.8372 13.3081 14.7299 13.9612 14.5188C14.601 14.312 15.1358 14.0731 15.5516 13.8079C15.9287 13.567 16.2526 13.3582 16.5417 13.1696C16.6838 13.0772 16.7715 13.027 16.8207 13.0008C17.225 13.0116 17.5973 13.0834 17.9287 13.2145C18.2867 13.3562 18.5906 13.5454 18.8318 13.7761C19.0896 14.0227 19.3232 14.3291 19.5263 14.6865C19.7393 15.0609 19.911 15.45 20.0366 15.8424C20.1679 16.2526 20.2783 16.7049 20.3647 17.1866C20.4523 17.6757 20.5116 18.1353 20.5405 18.5528V18.5531C20.5704 18.9777 20.5854 19.4216 20.5856 19.8726C20.5854 20.7374 20.3411 21.3903 19.8385 21.8686Z" fill="black"/>
</svg>
