<svg width="20" height="25" viewBox="0 0 20 25" fill="none" xmlns="http://www.w3.org/2000/svg">
<path d="M16.9223 2.3468H14.6408V1.4375C14.6408 0.919678 14.2211 0.5 13.7033 0.5H6.328C5.81018 0.5 5.3905 0.919678 5.3905 1.4375V2.3468H3.10938C1.81702 2.3468 0.765625 3.39819 0.765625 4.69055V22.1562C0.765625 23.4486 1.81702 24.5 3.10938 24.5H16.9223C18.2147 24.5 19.2661 23.4486 19.2661 22.1562V4.69055C19.2661 3.39819 18.2145 2.3468 16.9223 2.3468V2.3468ZM12.7658 2.375V4.19379H7.26532C7.26532 3.57068 7.26532 3.05597 7.26532 2.375H12.7658ZM17.3911 22.1562C17.3911 22.4148 17.1807 22.625 16.9223 22.625H3.10938C2.85083 22.625 2.64062 22.4148 2.64062 22.1562V4.69055C2.64062 4.43219 2.85083 4.2218 3.10938 4.2218H5.39032V5.13129C5.39032 5.64911 5.81018 6.06879 6.32782 6.06879H13.7033C14.2209 6.06879 14.6408 5.64911 14.6408 5.13129V4.2218H16.9223C17.1807 4.2218 17.3911 4.43219 17.3911 4.69055V22.1562ZM14.366 11.4462C14.7322 11.8124 14.7322 12.4061 14.366 12.7721L9.43933 17.6987C9.0733 18.0649 8.47968 18.0649 8.11346 17.6987L5.66516 15.2504C5.29913 14.8844 5.29913 14.2908 5.66516 13.9246C6.03137 13.5585 6.62482 13.5585 6.99103 13.9246L8.77649 15.71L13.0401 11.4464C13.4063 11.0802 13.9998 11.0802 14.366 11.4462V11.4462Z" fill="black"/>
</svg>
